<svg width="130" height="35" viewBox="0 0 130 35" fill="none" xmlns="http://www.w3.org/2000/svg">
<g clip-path="url(#clip0)">
<path d="M62.3636 20.5575C62.3636 20.7742 62.3403 21.0023 62.2869 21.2419C62.2357 21.4816 62.1567 21.7213 62.0475 21.9586C61.9383 22.196 61.7965 22.4241 61.6269 22.6407C61.4549 22.8573 61.2481 23.0486 61.0087 23.2168C60.7693 23.385 60.4951 23.5164 60.179 23.6155C59.8676 23.7146 59.5167 23.7653 59.1263 23.7653H53.9136C53.5953 23.7653 53.2443 23.7076 52.8679 23.597C52.4891 23.4864 52.1428 23.3021 51.8174 23.0486C51.4967 22.7928 51.2271 22.4633 51.0133 22.0554C50.7949 21.6475 50.6903 21.1498 50.6903 20.5575V19.5367C50.6903 19.3155 50.7135 19.0781 50.7623 18.8316C50.8135 18.585 50.8925 18.343 51.004 18.1034C51.1133 17.8637 51.2527 17.6356 51.4247 17.419C51.5943 17.2 51.8035 17.0134 52.0452 16.8544C51.9383 16.6078 51.8569 16.3589 51.8058 16.1078C51.7524 15.8566 51.7245 15.6192 51.7245 15.3957V14.3679C51.7245 13.7826 51.8337 13.2849 52.0475 12.8747C52.266 12.4645 52.5309 12.1327 52.8562 11.8815C53.1769 11.6303 53.5279 11.446 53.9067 11.3331C54.2855 11.2201 54.6317 11.1625 54.9525 11.1625H58.0712C58.4686 11.1625 58.8242 11.2109 59.1402 11.3123C59.454 11.4114 59.7328 11.5428 59.9722 11.711C60.2139 11.8792 60.4161 12.0705 60.5857 12.2871C60.7531 12.5037 60.8902 12.7318 60.9971 12.9692C61.104 13.2065 61.1807 13.4462 61.2295 13.6882C61.2806 13.9301 61.3062 14.1582 61.3062 14.3703V15.398C61.3062 15.9718 61.2039 16.4696 60.9971 16.8913C61.1853 17.0134 61.3643 17.1586 61.5293 17.3268C61.6919 17.495 61.8384 17.6863 61.9615 17.9029C62.0847 18.1195 62.1823 18.3638 62.2543 18.638C62.3241 18.9076 62.3612 19.2072 62.3612 19.539V20.5575H62.3636ZM59.0054 14.3864C59.0054 14.0753 58.9241 13.8402 58.7661 13.6835C58.6057 13.5245 58.3757 13.4439 58.0735 13.4439H54.9734C54.6596 13.4439 54.4249 13.5245 54.2785 13.6835C54.1274 13.8402 54.0508 14.0707 54.0508 14.3679V15.3957C54.0508 15.6999 54.1298 15.9303 54.2878 16.0801C54.4412 16.2322 54.6666 16.3105 54.9571 16.3105H58.0759C58.3896 16.3105 58.6243 16.2322 58.7754 16.0755C58.9288 15.9188 59.0078 15.6953 59.0078 15.3934V14.3864H59.0054ZM60.0326 19.5367C60.0326 19.2417 59.9536 19.0159 59.7909 18.8569C59.6283 18.6956 59.4075 18.6149 59.1309 18.6149H53.9183C53.6348 18.6149 53.4093 18.7025 53.2443 18.8799C53.0817 19.0574 52.9957 19.2763 52.9957 19.539V20.5598C52.9957 20.8387 53.084 21.0645 53.2583 21.2327C53.4303 21.3986 53.651 21.4816 53.9183 21.4816H59.1309C59.4238 21.4816 59.6492 21.394 59.8026 21.2166C59.9559 21.0438 60.0326 20.8225 60.0326 20.5598V19.5367Z" fill="#313D6A"/>
<path d="M79.1586 16.435C79.1586 16.9535 79.0912 17.4213 78.9611 17.8291C78.8309 18.2393 78.6566 18.6034 78.4359 18.9145C78.2151 19.2302 77.9571 19.4975 77.6713 19.7187C77.3808 19.9446 77.0787 20.1243 76.7603 20.2649C76.4465 20.4055 76.1258 20.5068 75.8051 20.5714C75.4844 20.6382 75.1823 20.6705 74.8965 20.6705H69.6838V18.3845H74.8965C75.1893 18.3615 75.4589 18.3015 75.6982 18.2048C75.9376 18.108 76.1421 17.9766 76.3164 17.8153C76.4861 17.6494 76.6185 17.4535 76.7138 17.2208C76.8114 16.9903 76.8556 16.7253 76.8556 16.435V15.398C76.8254 15.11 76.7649 14.845 76.672 14.6053C76.5744 14.3656 76.4489 14.1606 76.2839 13.99C76.1235 13.8218 75.926 13.6882 75.6936 13.5914C75.4635 13.4946 75.1986 13.4439 74.8988 13.4439H69.7048C69.3957 13.4439 69.1633 13.5245 69.0029 13.6835C68.8449 13.8402 68.7636 14.0707 68.7636 14.3679V23.763H66.4605V14.3679C66.4605 13.7826 66.5674 13.2849 66.7835 12.8747C66.9973 12.4645 67.2669 12.1327 67.5876 11.8815C67.9107 11.6303 68.2593 11.446 68.6381 11.3331C69.0169 11.2201 69.3678 11.1625 69.6838 11.1625H74.8965C75.417 11.1625 75.8818 11.2294 76.2978 11.3607C76.7092 11.4921 77.0763 11.6672 77.3901 11.8884C77.7085 12.1073 77.978 12.3585 78.1988 12.6466C78.4196 12.9346 78.6032 13.2342 78.7496 13.5476C78.8937 13.8633 78.9983 14.1767 79.0633 14.4993C79.1261 14.8173 79.1609 15.1169 79.1609 15.4003V16.435H79.1586Z" fill="#313D6A"/>
<path d="M95.6869 15.398C95.6869 15.9211 95.6195 16.3843 95.4894 16.7968C95.3592 17.2047 95.1849 17.5687 94.9642 17.8821C94.7434 18.1932 94.4854 18.4605 94.1949 18.6864C93.9068 18.9076 93.6046 19.092 93.2863 19.2348C92.9725 19.3777 92.6518 19.4814 92.3311 19.5459C92.0081 19.6081 91.706 19.6427 91.4201 19.6427L96.233 23.7653H92.6727L87.8691 19.6427H86.2121V17.3567H91.4224C91.7129 17.3337 91.9802 17.2738 92.2172 17.177C92.4566 17.0802 92.6611 16.9489 92.8377 16.7876C93.0097 16.6216 93.1468 16.4235 93.2398 16.193C93.3327 15.9626 93.3815 15.6976 93.3815 15.398V13.9555C93.3815 13.8264 93.3653 13.7296 93.3327 13.6605C93.3002 13.5937 93.256 13.543 93.2096 13.513C93.1584 13.4808 93.1073 13.46 93.0492 13.4531C92.9911 13.4462 92.94 13.4439 92.8958 13.4439H85.2895V23.763H82.9841V12.3147C82.9841 12.1557 83.0143 12.0059 83.0748 11.8654C83.1329 11.7248 83.2142 11.6004 83.3165 11.4967C83.4187 11.3907 83.5442 11.31 83.686 11.2501C83.8277 11.1925 83.9834 11.1625 84.1461 11.1625H92.8958C93.4094 11.1625 93.8417 11.2547 94.1972 11.4391C94.5551 11.6257 94.841 11.8562 95.0618 12.135C95.2825 12.4115 95.4429 12.7111 95.5405 13.036C95.6404 13.3563 95.6892 13.6605 95.6892 13.9416V15.398H95.6869Z" fill="#313D6A"/>
<path d="M113.198 18.6679C113.198 19.4352 113.065 20.1404 112.798 20.7856C112.531 21.4308 112.164 21.9862 111.692 22.454C111.218 22.9241 110.658 23.2882 110.009 23.5486C109.366 23.809 108.659 23.9426 107.897 23.9426H104.776C104.013 23.9426 103.309 23.8113 102.659 23.5486C102.008 23.2882 101.448 22.9241 100.976 22.454C100.502 21.9862 100.132 21.4308 99.8629 20.7856C99.5933 20.1404 99.4608 19.4352 99.4608 18.6679V16.2575C99.4608 15.4947 99.5933 14.7896 99.8629 14.142C100.132 13.4968 100.502 12.9392 100.976 12.4737C101.448 12.0082 102.008 11.6418 102.659 11.3791C103.309 11.1141 104.013 10.9827 104.776 10.9827H107.897C108.659 10.9827 109.363 11.1141 110.009 11.3791C110.658 11.6441 111.215 12.0082 111.692 12.4737C112.164 12.9392 112.533 13.4968 112.798 14.142C113.065 14.7896 113.198 15.4947 113.198 16.2575V18.6679ZM110.892 16.2575C110.892 15.8081 110.82 15.3956 110.674 15.0315C110.53 14.6651 110.325 14.3541 110.063 14.0937C109.8 13.8333 109.484 13.6328 109.112 13.4876C108.743 13.3447 108.338 13.271 107.897 13.271H104.776C104.327 13.271 103.92 13.3424 103.551 13.4876C103.181 13.6305 102.865 13.8333 102.598 14.0937C102.331 14.3541 102.126 14.6675 101.98 15.0315C101.836 15.3979 101.762 15.8081 101.762 16.2575V18.6656C101.762 19.1149 101.834 19.5228 101.98 19.8892C102.124 20.2556 102.331 20.5713 102.598 20.8317C102.865 21.0921 103.181 21.2926 103.551 21.4378C103.92 21.5806 104.33 21.6544 104.776 21.6544H107.881C108.329 21.6544 108.736 21.5829 109.11 21.4378C109.479 21.2926 109.798 21.0921 110.06 20.8317C110.328 20.5713 110.532 20.2556 110.679 19.8892C110.825 19.5228 110.897 19.1149 110.897 18.6656V16.2575H110.892Z" fill="#313D6A"/>
<path d="M130 16.435C130 16.9535 129.933 17.4213 129.802 17.8291C129.672 18.2393 129.498 18.6034 129.277 18.9145C129.057 19.2302 128.799 19.4975 128.513 19.7187C128.222 19.9446 127.92 20.1243 127.602 20.2649C127.288 20.4055 126.967 20.5068 126.647 20.5714C126.326 20.6382 126.024 20.6705 125.738 20.6705H120.525V18.3845H125.738C126.031 18.3615 126.3 18.3015 126.54 18.2048C126.779 18.108 126.984 17.9766 127.158 17.8153C127.327 17.6494 127.46 17.4535 127.555 17.2208C127.653 16.9903 127.697 16.7253 127.697 16.435V15.398C127.667 15.11 127.606 14.845 127.513 14.6053C127.416 14.3656 127.29 14.1606 127.125 13.99C126.965 13.8218 126.767 13.6882 126.535 13.5914C126.305 13.4946 126.04 13.4439 125.74 13.4439H120.546C120.237 13.4439 120.005 13.5245 119.844 13.6835C119.686 13.8402 119.605 14.0707 119.605 14.3679V23.763H117.302V14.3679C117.302 13.7826 117.409 13.2849 117.625 12.8747C117.839 12.4645 118.108 12.1327 118.429 11.8815C118.752 11.6303 119.101 11.446 119.479 11.3331C119.858 11.2201 120.209 11.1625 120.525 11.1625H125.738C126.258 11.1625 126.723 11.2294 127.139 11.3607C127.551 11.4921 127.918 11.6672 128.231 11.8884C128.55 12.1073 128.819 12.3585 129.04 12.6466C129.261 12.9346 129.445 13.2342 129.591 13.5476C129.735 13.8633 129.84 14.1767 129.905 14.4993C129.967 14.8173 130.002 15.1169 130.002 15.4003V16.435H130Z" fill="#313D6A"/>
<path d="M35.4916 10.5725C34.8478 11.121 34.483 11.8653 34.483 12.6396V23.1223V26.2263L36.5048 27.9822L37.9224 29.0883V8.50549C37.9247 8.50549 36.5071 9.71069 35.4916 10.5725Z" fill="#313D6A"/>
<path d="M37.9224 8.50549V29.0883L36.5048 27.9822L34.483 26.2263V23.1223V12.6396C34.483 11.8653 34.8455 11.121 35.4916 10.5725L37.9224 8.50549Z" fill="#313D6A"/>
<path d="M39.6422 25.9635V27.2264L44.8013 21.6843V12.6672C44.8013 11.2016 44.2273 10.2891 43.2699 9.74753C41.75 8.88569 39.6422 7.69202 39.6422 7.69202V25.9635V25.9635Z" fill="#313D6A"/>
<path d="M32.8209 24.2146L32.8441 9.24292C32.8464 8.10916 32.2422 7.03761 31.2011 6.33017C28.1427 4.2493 21.8936 0 21.8936 0L21.8774 27.7518C21.8657 28.1689 21.8657 28.4731 21.882 28.6828L16.8065 32.939L8.97473 26.5282L0.00656596 34.3954C-0.177027 36.0776 2.82088 33.098 3.16715 32.7708C5.0728 30.9756 7.02957 29.3188 8.98867 27.602L14.6661 32.2891C16.9552 34.1787 16.4463 34.3493 18.8701 32.2891L29.9833 22.8481L37.9475 29.6368C40.5457 26.8162 43.8783 23.2675 46.43 20.3916L46.853 21.0138L47.4967 18.7416L45.5353 19.3062L45.9629 19.8454C43.539 22.5093 40.3342 25.8968 37.8918 28.5399L32.8209 24.2146Z" fill="#313D6A"/>
<path d="M0.00701904 15.0983V34.4737L0.260331 34.499L1.09231 34.0381V16.1169L2.19851 15.4578V13.6097L0.00701904 15.0983Z" fill="#313D6A"/>
<path d="M2.19851 13.6097V15.4578L1.09231 16.1169V34.0381L0.169696 34.7294L0.00701904 34.6949V15.0983L2.19851 13.6097Z" fill="#313D6A"/>
<path d="M4.36676 11.9321V31.1393L5.45205 30.1783V12.9507L6.55825 12.2916V10.4435L4.36676 11.9321Z" fill="#313D6A"/>
<path d="M4.36676 11.9321V31.1393L5.45205 30.1783V12.9507L6.55825 12.2916V10.4435L4.36676 11.9321Z" fill="#313D6A"/>
<path d="M17.5134 3.36667L17.5181 14.5292L14.2366 12.2962L14.239 7.54915L15.3452 6.89009V5.04197L13.1537 6.53061L13.1514 11.5565L8.98218 8.72208V27.0512L15.6426 32.7984C16.8069 33.7547 16.4537 33.787 17.5785 32.9689L19.6863 31.1784C19.691 26.8415 19.698 20.4837 19.7026 17.8037C19.7026 16.8865 19.3052 16.0086 18.6034 15.3311L18.5987 4.3783L19.7049 3.71925V1.87573L17.5134 3.36667Z" fill="#313D6A"/>
<path d="M1.09231 33.598V33.651L0.00701904 34.9253L1.09231 33.598Z" fill="#313D6A"/>
<path fill-rule="evenodd" clip-rule="evenodd" d="M26.2958 28.8487L29.6771 25.8369L33.0585 28.8487H26.2958ZM33.0562 29.1944L29.6748 32.2062L26.2935 29.1944H33.0562Z" fill="#313D6A"/>
<path fill-rule="evenodd" clip-rule="evenodd" d="M7.26007 31.9481L9.22846 30.1967L11.1969 31.9481H8.11064H7.26007ZM11.1527 32.1347L9.22846 33.8492L7.30423 32.1347H11.1527Z" fill="#313D6A"/>
</g>
<defs>
<clipPath id="clip0">
<rect width="130" height="34.9254" fill="white"/>
</clipPath>
</defs>
</svg>
