<svg width="614" height="380" viewBox="0 0 614 380" fill="none" xmlns="http://www.w3.org/2000/svg">
<g clip-path="url(#clip0)">
<path d="M297.234 70.0817L269.934 54.5184V28.7166L261.202 33.8867L274.689 8.04829L286.454 18.9381L279.68 22.948V48.7499L306.98 64.3132" fill="#313D6A"/>
<path d="M297.234 70.0817L269.934 54.5184V28.7166L261.202 33.8867L274.689 8.04829L286.454 18.9381L279.68 22.948V48.7499L306.98 64.3132" stroke="#313D6A" stroke-miterlimit="10"/>
<path d="M268.924 25.2319L275.295 13.0312L280.852 18.1728L268.924 25.2319Z" fill="#313D6A" stroke="#313D6A" stroke-miterlimit="10"/>
<path d="M156.936 304.969C167.52 299.269 200.455 279.879 208.637 274.843C215.818 270.422 218.684 263.38 217.373 257.782C216.466 261.971 213.567 266.241 208.637 269.274C200.455 274.31 167.52 293.7 156.936 299.4C150.304 302.97 149.588 306.54 151.477 309.41C152.421 307.961 154.155 306.467 156.936 304.969Z" fill="#C9C9C9"/>
<path d="M563.219 283.519C555.891 279.448 535.536 268.456 527.801 263.978C524.341 261.975 521.369 258.258 520.421 254.037C518.935 260.363 522.871 266.693 527.801 269.547C535.536 274.025 555.891 285.017 563.219 289.088C565.816 290.529 567.746 292.231 568.739 294.058C570.868 290.203 568.336 286.364 563.219 283.519Z" fill="#C9C9C9"/>
<path d="M502.911 186.324C494.688 190.839 487.466 189.552 480.277 185.563C467.547 178.492 459.405 173.607 454.112 170.757C447.351 167.113 441.085 169.943 436.2 172.792C421.186 181.553 385.671 202.425 378.511 206.174C369.652 210.815 354.879 212.081 343.907 206.174C332.936 200.267 313.285 188.388 301.162 181.748C284.064 172.385 278.678 165.77 260.045 176.456C237.289 189.508 202.934 209.024 189.907 216.352C183.246 220.097 181.724 223.565 183.89 226.843C184.936 225.255 186.894 223.618 189.907 221.925C202.934 214.597 237.289 195.081 260.045 182.029C278.678 171.343 284.064 177.958 301.162 187.322C313.285 193.961 332.936 205.84 343.907 211.747C354.879 217.654 369.652 216.388 378.511 211.747C385.671 207.994 421.186 187.126 436.2 178.365C441.085 175.516 447.351 172.686 454.112 176.33C459.405 179.18 467.547 184.065 480.277 191.136C487.466 195.13 494.688 196.412 502.911 191.897C520.876 182.037 613.898 133.308 613.898 133.308V127.739C613.898 127.735 520.876 176.46 502.911 186.324Z" fill="#C9C9C9"/>
<path d="M411.115 150.764C412.585 151.929 418.284 155.263 426.434 160.058C427.122 160.461 427.664 160.86 428.091 161.251C429.752 159.611 430.277 157.547 426.434 155.283C418.284 150.488 412.585 147.153 411.115 145.989C409.808 144.955 408.961 143.815 408.497 142.622C407.512 145.496 408.135 148.403 411.115 150.764Z" fill="#C9C9C9"/>
<path d="M432.968 140.998C433.725 139.948 434.975 138.983 436.587 138.132C446.972 132.669 469.167 120.753 478.192 116.169C485.756 112.33 487.885 106.798 486.656 102.426C485.793 105.605 483.175 108.866 478.192 111.394C469.167 115.974 446.972 127.894 436.587 133.357C432.752 135.38 430.973 138.038 432.968 140.998Z" fill="#C9C9C9"/>
<path d="M280.103 86.1255C289.499 80.7925 336.173 55.0518 344.897 50.6592C353.621 46.2666 358.319 47.207 365.366 50.6592C372.412 54.1114 454.186 97.6626 459.218 99.8609C460.985 100.63 462.58 101.672 463.537 102.89C466.057 99.6655 463.024 96.7466 459.218 95.0857C454.186 92.8914 372.412 49.3361 365.366 45.8839C358.319 42.4317 353.621 41.4913 344.897 45.8839C336.173 50.2765 289.499 76.0172 280.103 81.3502C270.707 86.6832 258.967 94.2145 240.513 85.1159C225.267 77.5968 177.694 50.6551 158.157 40.4818V45.257C169.23 50.59 222.059 80.7925 240.513 89.8911C258.967 98.9897 270.711 91.4584 280.103 86.1255Z" fill="#C9C9C9"/>
<path d="M542.42 254.423C543.576 252.221 546.32 249.831 551.006 247.177C565.804 238.791 606.306 215.395 613.898 211.178V206.402C606.302 210.62 565.8 234.02 551.006 242.402C542.717 247.1 540.49 250.971 542.42 254.423Z" fill="#C9C9C9"/>
<path d="M195.118 259.577C196.669 256.553 195.321 253.023 189.504 249.323C184.354 246.045 116.633 204.542 99.5352 194.364C90.5953 189.044 85.2868 187.037 73.481 193.957C59.0168 202.437 0.203491 235.888 0.203491 235.888V240.664C0.203491 240.664 59.0168 207.212 73.481 198.733C85.2868 191.812 90.5953 193.819 99.5352 199.14C116.633 209.317 184.354 250.821 189.504 254.098C192.467 255.983 194.267 257.827 195.118 259.577Z" fill="#C9C9C9"/>
<path d="M581.139 304.724C571.597 310.485 512.047 345.21 493.06 356.177C474.073 367.149 461.001 364.682 447.566 356.947C433.994 349.13 407.512 332.46 385.374 318.728C367.12 307.407 357.993 314.987 340.895 324.35C328.771 330.99 270.703 364.592 259.732 370.499C248.761 376.406 233.987 375.14 225.129 370.499C216.27 365.858 145.097 323.072 135.36 317.715C132.249 316.005 130.088 313.041 129.404 309.605C128.366 314.951 130.874 320.019 135.36 322.486C145.097 327.839 216.274 370.629 225.133 375.27C233.991 379.911 248.765 381.177 259.736 375.27C270.707 369.363 328.776 335.761 340.899 329.122C357.997 319.758 367.124 312.174 385.378 323.5C407.516 337.231 433.998 353.902 447.571 361.718C461.005 369.453 474.077 371.92 493.064 360.949C512.051 349.977 571.597 315.256 581.143 309.496C588.247 305.209 591.345 298.862 590.209 293.024C589.383 297.36 586.334 301.594 581.139 304.724Z" fill="#C9C9C9"/>
<path d="M0.203491 235.888C0.203491 235.888 59.0168 202.437 73.481 193.957C85.2868 187.037 90.5953 189.044 99.5352 194.364C116.633 204.542 184.354 246.045 189.504 249.323C198.46 255.022 196.831 260.314 190.318 263.978C177.718 271.066 150.789 286.531 139.838 292.475C125.589 300.21 127.218 313.237 135.36 317.715C145.097 323.068 216.274 365.858 225.133 370.499C233.991 375.14 248.765 376.406 259.736 370.499C270.707 364.592 328.776 330.99 340.899 324.35C357.997 314.987 367.124 307.403 385.378 318.728C407.516 332.46 433.998 349.13 447.571 356.947C461.005 364.682 474.077 367.149 493.064 356.177C512.051 345.206 571.597 310.485 581.143 304.724C593.348 297.36 593.755 283.926 581.135 277.412C573.416 273.427 555.769 263.734 547.753 259.093C539.737 254.452 538.797 249.323 551.01 242.402C565.808 234.016 606.31 210.62 613.902 206.402" stroke="#313D6A" stroke-miterlimit="10"/>
<path d="M613.898 110.637C613.898 110.637 514.269 163.535 502.35 170.069C492.62 175.402 488.244 173.855 480.875 169.755C466.781 161.911 441.501 147.182 437.259 144.658C429.878 140.265 431.217 136.186 436.587 133.365C446.972 127.902 469.167 115.986 478.192 111.402C489.937 105.442 488.594 95.4032 481.885 91.951C473.861 87.819 374.248 36.3497 366.949 32.7754C359.646 29.197 347.469 28.224 338.428 32.7754C329.386 37.3267 286.262 61.0564 276.272 66.1736C262.179 73.3915 257.741 78.4883 242.386 70.2527C223.631 60.1934 199.579 46.5719 188.392 40.5469" stroke="#313D6A" stroke-miterlimit="10"/>
<path d="M613.898 188.49C606.57 192.561 543.271 230.189 529.023 238.331C514.774 246.473 520.066 259.5 527.801 263.978C535.536 268.456 555.891 279.448 563.219 283.519C570.546 287.59 572.582 293.696 563.219 298.988C553.855 304.281 505.785 331.707 487.466 342.291C469.147 352.876 466.297 350.026 452.863 343.105C439.429 336.185 411.095 317.344 388.635 303.666C367.014 290.5 348.634 301.96 337.235 308.881C325.836 315.801 265.435 350.962 254.851 356.662C244.266 362.361 238.567 361.14 230.018 356.662C221.469 352.184 163.042 316.494 156.936 313.644C150.829 310.794 146.351 305.095 156.936 299.395C167.52 293.696 200.455 274.306 208.637 269.27C219.222 262.757 220.443 250.544 212.708 245.659C210.441 244.226 188.689 231.003 188.689 231.003C181.362 226.525 180.356 221.721 189.911 216.348C202.938 209.02 237.293 189.504 260.049 176.452C278.682 165.766 284.068 172.381 301.166 181.744C313.29 188.384 332.94 200.263 343.911 206.17C354.883 212.077 369.656 210.811 378.515 206.17C385.676 202.421 421.191 181.549 436.204 172.788C441.09 169.939 447.355 167.109 454.117 170.753C459.409 173.602 467.551 178.488 480.281 185.559C487.47 189.553 494.692 190.835 502.915 186.32C520.881 176.46 613.902 127.731 613.902 127.731" stroke="#313D6A" stroke-miterlimit="10"/>
<path d="M158.157 40.4818C169.23 45.8147 222.059 76.0172 240.513 85.1159C258.967 94.2145 270.711 86.6832 280.103 81.3502C289.495 76.0172 336.173 50.2765 344.897 45.8839C353.621 41.4913 358.319 42.4317 365.365 45.8839C372.412 49.3361 454.186 92.8873 459.218 95.0857C464.249 97.284 467.942 101.673 459.218 106.065C450.494 110.458 423.348 125.402 416.607 129.282C408.974 133.674 404.858 141.039 411.115 145.993C412.585 147.157 418.284 150.492 426.434 155.287C433.355 159.358 426.121 162.802 423.584 164.243C410.928 171.441 380.579 188.694 373.63 192.333C365.081 196.811 359.381 198.032 348.797 192.333C338.212 186.634 315.415 173.607 304.016 166.686C292.617 159.765 278.369 149.995 255.979 161.801C233.588 173.607 186.247 201.696 174.034 208.617C164.675 213.921 157.343 211.874 151.644 208.617C151.644 208.617 102.975 179.404 100.756 178.085C92.0324 172.906 83.2716 171.237 73.2937 177.095C51.4977 189.886 0.203491 218.383 0.203491 218.383" stroke="#313D6A" stroke-miterlimit="10"/>
<path d="M404.39 108.504L428.787 94.6297V52.1695L436.591 56.2282L424.537 34.0048L414.022 44.4957L420.075 47.6425V90.0987L395.678 103.973" fill="#FF4D00"/>
<path d="M429.687 48.99L423.996 38.4991L419.029 43.4535L429.687 48.99Z" fill="#FF4D00"/>
<path d="M424.04 108.54L338.509 62.3917L256.479 106.252L275.947 117.61L322.983 92.1708L357.407 110.926L336.954 124.193L366.359 140.363L424.04 108.54Z" fill="#C9C9C9"/>
<path d="M304.342 84.7576L316.2 91.9266V75.4717L304.342 68.3027V84.7576Z" fill="#313D6A" stroke="#313D6A" stroke-miterlimit="10"/>
<path d="M342.515 85.299L330.656 92.468V74.1242L342.515 66.9552V85.299Z" fill="#313D6A" stroke="#313D6A" stroke-miterlimit="10"/>
<path d="M330.656 74.1242L366.908 93.9458V86.3534L322.983 62.3347V88.2709L330.656 92.468V74.1242Z" fill="white" stroke="#313D6A" stroke-miterlimit="10"/>
<path d="M361.29 108.76L388.415 94.1208L415.54 108.76L388.415 124.026L361.29 108.76Z" fill="white" stroke="black" stroke-miterlimit="10"/>
<path d="M415.54 82.8239L337.618 40.8644L264.088 80.6052L275.947 87.7742L322.983 62.3347L388.415 98.0901L415.54 82.8239Z" fill="white" stroke="#313D6A" stroke-miterlimit="10"/>
<path d="M388.721 97.8987V35.0063L366.908 47.2843V136.097L415.54 108.76V82.8239L388.721 97.8987Z" fill="white" stroke="#313D6A" stroke-miterlimit="10"/>
<path d="M345.092 123.819L366.908 136.097V47.2843L345.092 35.0063V123.819Z" fill="white" stroke="#313D6A" stroke-miterlimit="10"/>
<path d="M264.088 106.541L275.947 113.71V87.7742L264.088 80.6052V106.541Z" fill="#313D6A" stroke="#313D6A" stroke-miterlimit="10"/>
<path d="M275.947 87.7742V113.71L283.698 109.534V93.0787L316.2 75.4717V91.9266L322.983 88.2709V62.3347L275.947 87.7742Z" fill="white" stroke="#313D6A" stroke-miterlimit="10"/>
<path d="M345.092 35.0063L366.908 23.233L388.721 35.0063L366.908 47.2843L345.092 35.0063Z" fill="#313D6A" stroke="#313D6A" stroke-miterlimit="10"/>
<path d="M288.266 125.929C288.616 125.677 289.011 125.428 289.451 125.196C294.731 122.367 303.801 117.148 307.725 115.275C313.042 112.735 319.555 114.868 321.351 115.849C323.044 116.774 325.32 118.056 328.381 119.644C328.967 119.245 329.57 118.821 329.916 118.573C331.418 117.498 331.296 115.288 328.939 114.079C325.593 112.361 323.146 110.976 321.351 109.999C319.555 109.022 313.042 106.885 307.725 109.425C303.801 111.302 294.731 116.517 289.451 119.346C286.047 121.166 285.139 123.641 288.266 125.929Z" fill="#C9C9C9"/>
<path d="M288.265 125.927C288.615 125.675 289.01 125.427 289.45 125.195C294.73 122.365 303.8 117.146 307.725 115.274C313.041 112.733 319.555 114.867 321.35 115.848C323.044 116.772 325.319 118.054 328.381 119.642" stroke="#313D6A" stroke-miterlimit="10" stroke-linecap="round"/>
<path d="M334.727 129.033C331.137 126.998 327.75 124.91 326.528 124.12C325.763 123.627 325.344 123.159 325.258 122.687L325.242 122.691C325.242 128.313 324.652 128.321 326.528 129.534C327.75 130.324 331.137 132.416 334.727 134.448C335.395 134.826 335.896 135.307 336.258 135.84C337.858 133.691 337.544 130.629 334.727 129.033Z" fill="#C9C9C9"/>
<path d="M325.258 122.687L325.242 122.691C325.242 128.313 324.652 128.321 326.528 129.534C327.75 130.324 331.137 132.416 334.727 134.448C335.395 134.826 335.896 135.307 336.258 135.84" stroke="#313D6A" stroke-miterlimit="10" stroke-linecap="round"/>
<path d="M307.721 109.422C303.796 111.299 294.726 116.513 289.446 119.343C285.778 121.309 285.005 124.041 289.084 126.475C293.163 128.91 306.226 137.491 311.612 140.174C316.998 142.857 322.543 143.337 326.133 141.749C329.724 140.166 334.959 136.88 335.737 136.274C337.459 134.93 338.314 131.071 334.727 129.036C331.137 127 327.75 124.912 326.528 124.122C324.652 122.909 324.823 121.85 327.025 120.531C327.676 120.141 329.26 119.041 329.915 118.573C331.418 117.499 331.295 115.288 328.938 114.079C325.592 112.361 323.145 110.977 321.35 110C319.551 109.015 313.037 106.882 307.721 109.422Z" stroke="#313D6A" stroke-miterlimit="10" stroke-linecap="round"/>
<path d="M300.702 121.893C300.702 121.893 300.702 119.381 300.702 115.257C300.702 111.133 296.42 110.34 296.42 110.34V113.381" stroke="#313D6A" stroke-miterlimit="10" stroke-linecap="round"/>
<path d="M305.685 119.955C305.685 119.955 305.685 117.443 305.685 113.32C305.685 109.196 301.402 108.08 301.402 108.08V110.686" stroke="#313D6A" stroke-miterlimit="10" stroke-linecap="round"/>
<path d="M305.685 112.746L300.702 115.441" stroke="#313D6A" stroke-miterlimit="10" stroke-linecap="round"/>
<path d="M305.685 114.936L300.702 117.627" stroke="#313D6A" stroke-miterlimit="10" stroke-linecap="round"/>
<path d="M351.203 60.8122V47.5449L361.291 53.2931V66.5604L351.203 60.8122Z" fill="#C9C9C9"/>
<path d="M352.127 52.0718L360.391 56.7819V54.0625L352.127 49.3524V52.0718Z" fill="#313D6A" stroke="#313D6A" stroke-miterlimit="10"/>
<path d="M351.203 76.9088V63.6374L361.291 69.3856V82.657L351.203 76.9088Z" fill="#C9C9C9"/>
<path d="M352.127 68.1643L360.391 72.8745V70.1591L352.127 65.449V68.1643Z" fill="#313D6A" stroke="#313D6A" stroke-miterlimit="10"/>
<path d="M351.203 92.7652V79.4979L361.291 85.2461V98.5134L351.203 92.7652Z" fill="#C9C9C9"/>
<path d="M352.127 84.0208L360.391 88.7309V86.0156L352.127 81.3055V84.0208Z" fill="#313D6A" stroke="#313D6A" stroke-miterlimit="10"/>
<path d="M351.203 108.744V95.4724L361.291 101.221V114.492L351.203 108.744Z" fill="#C9C9C9"/>
<path d="M352.127 99.9993L360.391 104.709V101.99L352.127 97.2799V99.9993Z" fill="#313D6A" stroke="#313D6A" stroke-miterlimit="10"/>
<path d="M383.815 60.918V47.6467L373.727 53.2931V66.5604L383.815 60.918Z" fill="#C9C9C9"/>
<path d="M387.007 51.449L376.919 57.0954L373.727 53.2931L383.815 47.6467L387.007 51.449Z" fill="#FF4D00"/>
<path d="M376.919 57.0954L373.727 53.2931V55.638L376.919 57.0954Z" fill="#313D6A"/>
<path d="M383.815 77.0106V63.7433L373.727 69.3856V82.657L383.815 77.0106Z" fill="#C9C9C9"/>
<path d="M387.007 67.5455L376.919 73.1879L373.727 69.3856L383.815 63.7433L387.007 67.5455Z" fill="#FF4D00"/>
<path d="M376.919 73.1879L373.727 69.3856V71.7346L376.919 73.1879Z" fill="#313D6A"/>
<path d="M383.815 92.8711V79.5997L373.727 85.2461V98.5134L383.815 92.8711Z" fill="#C9C9C9"/>
<path d="M387.007 83.402L376.919 89.0484L373.727 85.2461L383.815 79.5997L387.007 83.402Z" fill="#FF4D00"/>
<path d="M376.919 89.0484L373.727 85.2462V87.591L376.919 89.0484Z" fill="#313D6A"/>
<path d="M383.815 108.846V95.5742L373.727 101.221V114.492L383.815 108.846Z" fill="#C9C9C9"/>
<path d="M396.468 101.526V119.491L409.792 112.037V94.072L396.468 101.526Z" fill="white" stroke="#313D6A" stroke-miterlimit="10"/>
<path d="M387.007 99.3805L376.919 105.023L373.727 101.221L383.815 95.5742L387.007 99.3805Z" fill="#FF4D00"/>
<path d="M376.919 105.023L373.727 101.221V103.565L376.919 105.023Z" fill="#313D6A"/>
<path d="M403.128 97.8132V115.856" stroke="#313D6A" stroke-miterlimit="10"/>
<path d="M302.53 49.3361C302.53 49.3361 305.913 47.4675 304.513 45.1959C303.674 43.8321 298.785 41.3325 296.057 42.277C288.644 44.8499 287.468 50.6795 287.073 54.9051C287.073 54.9051 279.655 56.8266 279.655 65.7624C279.655 69.7886 286.12 72.8581 287.036 72.6505C289.348 72.1294 302.53 49.3361 302.53 49.3361Z" fill="#FF4D00"/>
<path d="M307.582 52.487C307.582 52.487 307.953 43.3924 301.769 45.2651C294.27 47.5326 292.52 53.7612 292.121 57.8566C292.121 57.8566 284.606 59.6478 284.606 68.6284C284.606 73.6683 289.918 73.6316 292.283 72.447C294.364 71.4048 305.86 65.5385 307.973 64.3661C310.086 63.1936 312.598 59.9206 312.598 55.528C312.602 51.1314 309.3 50.8871 307.582 52.487Z" fill="white" stroke="#313D6A" stroke-miterlimit="10"/>
<path d="M179.807 305.942L233.32 277.213L286.828 305.942L233.32 335.892L179.807 305.942Z" fill="#C9C9C9"/>
<path d="M234.101 319.762L259.993 306.748L281.89 319.372L256.707 333.469L234.101 319.762Z" fill="#C9C9C9"/>
<path d="M186.125 320.015L210.933 306.699L235.742 320.015L210.933 333.901L186.125 320.015Z" fill="#C9C9C9"/>
<path d="M233.32 330.66L189.455 305.876V192.626L233.32 217.41V330.66Z" fill="white" stroke="#313D6A" stroke-miterlimit="10"/>
<path d="M207.518 287.846L196.551 281.65V253.328L207.518 259.524V287.846Z" fill="#C9C9C9"/>
<path d="M207.518 249.978L196.551 243.782V215.464L207.518 221.66V249.978Z" fill="#FF4D00"/>
<path d="M226.224 297.327L215.257 291.127V262.81L226.224 269.006V297.327Z" fill="#FF4D00"/>
<path d="M226.224 259.459L215.257 253.263V224.941L226.224 231.137V259.459Z" fill="#C9C9C9"/>
<path d="M233.32 330.66L277.18 305.876V192.626L233.32 217.41V330.66Z" fill="white" stroke="#313D6A" stroke-miterlimit="10"/>
<path d="M259.117 287.846L270.089 281.65V253.328L259.117 259.524V287.846Z" fill="#FF4D00"/>
<path d="M259.117 249.978L270.089 243.782V215.464L259.117 221.66V249.978Z" fill="#C9C9C9"/>
<path d="M240.411 297.327L251.383 291.127V262.81L240.411 269.006V297.327Z" fill="#C9C9C9"/>
<path d="M240.411 259.459L251.383 253.263V224.941L240.411 231.137V259.459Z" fill="#FF4D00"/>
<path d="M189.455 192.626L233.32 168.86L277.18 192.626L233.32 217.41L189.455 192.626Z" fill="#313D6A" stroke="#313D6A" stroke-miterlimit="10"/>
<path d="M256.638 330.217L276.924 318.802L276.785 313.212L256.638 325.043V330.217Z" fill="white" stroke="#313D6A" stroke-miterlimit="10"/>
<path d="M245.948 311.926L266.152 301.337L276.785 313.212L256.638 325.043L245.948 311.926Z" fill="#313D6A" stroke="#313D6A" stroke-miterlimit="10"/>
<path d="M256.638 330.217L246.086 323.642L245.948 311.926L256.638 325.043V330.217Z" fill="white" stroke="#313D6A" stroke-miterlimit="10"/>
<path d="M211.178 330.689L190.896 319.274L191.03 313.684L211.178 324.733V330.689Z" fill="white" stroke="#313D6A" stroke-miterlimit="10"/>
<path d="M221.87 312.398L201.67 301.81L191.032 313.685L211.18 324.733L221.87 312.398Z" fill="#313D6A" stroke="#313D6A" stroke-miterlimit="10"/>
<path d="M211.177 330.689L221.734 324.114L221.868 312.398L211.177 324.733V330.689Z" fill="white" stroke="#313D6A" stroke-miterlimit="10"/>
<path d="M233.32 208.621L204.509 192.345V172.731L233.32 189.007V208.621Z" fill="white" stroke="#313D6A" stroke-miterlimit="10"/>
<path d="M233.32 208.621L262.126 192.345V172.731L233.32 189.007V208.621Z" fill="white" stroke="#313D6A" stroke-miterlimit="10"/>
<path d="M204.509 172.731L233.32 157.123L262.126 172.731L233.32 189.007L204.509 172.731Z" fill="#313D6A" stroke="#313D6A" stroke-miterlimit="10"/>
<path d="M233.32 180.157L219.022 172.084V157.502L233.32 165.579V180.157Z" fill="white" stroke="#313D6A" stroke-miterlimit="10"/>
<path d="M233.32 180.157L247.613 172.084V157.502L233.32 165.579V180.157Z" fill="white" stroke="#313D6A" stroke-miterlimit="10"/>
<path d="M219.022 157.502L233.32 149.755L247.613 157.502L233.32 165.579L219.022 157.502Z" fill="#313D6A" stroke="#313D6A" stroke-miterlimit="10"/>
<path d="M429.723 318.619L462.91 300.637L496.092 318.619L462.91 337.365L429.723 318.619Z" fill="#C9C9C9"/>
<path d="M462.91 333.079L436.958 318.415V284.117L462.91 298.777V333.079Z" fill="white" stroke="#313D6A" stroke-miterlimit="10"/>
<path d="M462.91 333.079L488.858 318.415V284.117L462.91 298.777V333.079Z" fill="white" stroke="#313D6A" stroke-miterlimit="10"/>
<path d="M436.958 284.117L462.91 270.056L488.858 284.117L462.91 298.777L436.958 284.117Z" fill="#313D6A" stroke="#313D6A" stroke-miterlimit="10"/>
<path d="M447.949 304.439L442.339 301.272V293.855L447.949 297.026V304.439Z" fill="#FF4D00"/>
<path d="M447.949 317.922L442.339 314.755V307.338L447.949 310.509V317.922Z" fill="#FF4D00"/>
<path d="M457.528 314.808L451.918 311.637V304.22L457.528 307.391V314.808Z" fill="#313D6A" stroke="#313D6A" stroke-miterlimit="10"/>
<path d="M462.91 290.329L488.858 275.666V241.368L462.91 256.031V290.329Z" fill="white" stroke="#313D6A" stroke-miterlimit="10"/>
<path d="M462.91 290.329L436.958 275.666V241.368L462.91 256.031V290.329Z" fill="white" stroke="#313D6A" stroke-miterlimit="10"/>
<path d="M488.858 241.368L462.91 227.307L436.958 241.368L462.91 256.031L488.858 241.368Z" fill="#313D6A" stroke="#313D6A" stroke-miterlimit="10"/>
<path d="M477.866 261.694L483.48 258.523V251.106L477.866 254.277V261.694Z" fill="#FF4D00"/>
<path d="M477.866 275.173L483.48 272.006V264.589L477.866 267.76V275.173Z" fill="#FF4D00"/>
<path d="M468.288 272.059L473.902 268.888V261.474L468.288 264.642V272.059Z" fill="#313D6A" stroke="#313D6A" stroke-miterlimit="10"/>
<path d="M447.775 196.073C453.934 195.096 458.466 191.391 457.896 187.798C457.325 184.205 451.87 182.085 445.71 183.063C439.551 184.04 435.02 187.745 435.59 191.337C436.16 194.93 441.615 197.05 447.775 196.073Z" fill="#C9C9C9"/>
<path d="M445.327 193.567C447.777 193.345 449.657 191.994 449.526 190.55C449.395 189.106 447.303 188.115 444.854 188.337C442.404 188.559 440.524 189.909 440.655 191.354C440.786 192.798 442.878 193.789 445.327 193.567Z" fill="white"/>
<path d="M445.108 179.786C451.554 179.786 456.779 174.561 456.779 168.115C456.779 161.669 451.554 156.443 445.108 156.443C438.662 156.443 433.436 161.669 433.436 168.115C433.436 174.561 438.662 179.786 445.108 179.786Z" fill="#313D6A" stroke="#313D6A" stroke-width="0.5" stroke-miterlimit="10"/>
<path d="M445.108 191.458V167.614" stroke="#313D6A" stroke-width="0.5" stroke-miterlimit="10" stroke-linecap="round"/>
<path d="M445.108 179.786V167.614" stroke="white" stroke-width="0.5" stroke-miterlimit="10" stroke-linecap="round"/>
<path d="M450.335 170.048C450.335 170.048 450.091 173.208 445.108 173.208" stroke="white" stroke-width="0.5" stroke-miterlimit="10" stroke-linecap="round"/>
<path d="M439.881 172.292C439.881 172.292 440.125 175.451 445.108 175.451" stroke="white" stroke-width="0.5" stroke-miterlimit="10" stroke-linecap="round"/>
<path d="M339.344 229.985L312.048 214.422V173.151L303.316 178.321L316.803 152.482L328.568 163.372L321.794 167.382V208.653L349.094 224.217" fill="#313D6A"/>
<path d="M339.344 229.985L312.048 214.422V173.151L303.316 178.321L316.803 152.482L328.568 163.372L321.794 167.382V208.653L349.094 224.217" stroke="#313D6A" stroke-miterlimit="10"/>
<path d="M311.038 169.666L317.409 157.465L322.966 162.607L311.038 169.666Z" fill="#313D6A" stroke="#313D6A" stroke-miterlimit="10"/>
<path d="M252.383 138.707C258.185 137.786 262.453 134.296 261.916 130.912C261.379 127.528 256.24 125.531 250.438 126.452C244.636 127.373 240.368 130.862 240.905 134.246C241.442 137.63 246.581 139.627 252.383 138.707Z" fill="#C9C9C9"/>
<path d="M248.2 136.265C250.506 136.056 252.276 134.785 252.153 133.426C252.03 132.067 250.06 131.134 247.754 131.343C245.447 131.552 243.678 132.823 243.801 134.183C243.924 135.542 245.893 136.474 248.2 136.265Z" fill="white"/>
<path d="M247.987 134.065V125.789" stroke="#313D6A" stroke-miterlimit="10" stroke-linecap="round"/>
<path d="M247.989 106.399L240.225 125.101C240.225 127.344 243.702 129.16 247.989 129.16C252.275 129.16 255.752 127.344 255.752 125.101L247.989 106.399Z" fill="#313D6A" stroke="#313D6A" stroke-miterlimit="10"/>
<path d="M515.08 299.29C521.064 298.341 525.466 294.742 524.912 291.251C524.358 287.76 519.058 285.7 513.074 286.65C507.09 287.599 502.688 291.199 503.242 294.689C503.795 298.18 509.095 300.24 515.08 299.29Z" fill="#C9C9C9"/>
<path d="M510.764 296.787C513.144 296.572 514.971 295.259 514.844 293.855C514.716 292.451 512.684 291.488 510.304 291.703C507.923 291.919 506.097 293.232 506.224 294.636C506.351 296.039 508.384 297.003 510.764 296.787Z" fill="white"/>
<path d="M510.557 294.506V285.969" stroke="#313D6A" stroke-miterlimit="10" stroke-linecap="round"/>
<path d="M510.557 265.969L502.55 285.261C502.55 287.573 506.136 289.446 510.557 289.446C514.979 289.446 518.565 287.573 518.565 285.261L510.557 265.969Z" fill="#313D6A" stroke="#313D6A" stroke-miterlimit="10"/>
<path d="M165.689 118.933V73.8515L151.249 65.6525V110.734L165.689 118.933Z" fill="white"/>
<path d="M181.858 136.683V94.0638L167.415 85.8649V128.484L181.858 136.683Z" fill="white"/>
<path d="M198.024 116.165V76.3958L183.584 68.1969V107.966L198.024 116.165Z" fill="white"/>
<path d="M214.459 133.239V95.8428L200.019 87.6439V125.04L214.459 133.239Z" fill="white"/>
<path d="M161.821 94.1411C163.948 93.3127 164.711 90.1768 163.527 87.137C162.343 84.0972 159.659 82.3044 157.533 83.1328C155.406 83.9612 154.643 87.097 155.827 90.1369C157.011 93.1767 159.695 94.9694 161.821 94.1411Z" fill="white"/>
<path d="M209.334 111.41C211.46 110.582 212.224 107.446 211.04 104.406C209.856 101.366 207.172 99.5734 205.046 100.402C202.919 101.23 202.155 104.366 203.34 107.406C204.524 110.446 207.208 112.238 209.334 111.41Z" fill="white"/>
<path d="M177.686 110.821C179.813 109.993 180.577 106.857 179.392 103.817C178.208 100.777 175.524 98.9844 173.398 99.8127C171.272 100.641 170.508 103.777 171.692 106.817C172.876 109.857 175.56 111.649 177.686 110.821Z" fill="white"/>
<path d="M193.034 92.9696C195.16 92.1412 195.924 89.0053 194.74 85.9655C193.555 82.9257 190.872 81.1329 188.745 81.9613C186.619 82.7897 185.855 85.9255 187.039 88.9654C188.223 92.0052 190.907 93.7979 193.034 92.9696Z" fill="white"/>
<path d="M225.434 86.8379L221.29 96.5024L218.64 90.3389L225.434 86.8379Z" fill="#313D6A" stroke="#313D6A" stroke-miterlimit="10"/>
<path d="M139.675 101.717L157.88 90.4203L173.749 107.099L189.097 89.2479L205.393 109.183L222.385 90.1924" stroke="#313D6A" stroke-width="3" stroke-miterlimit="10" stroke-linecap="round"/>
<path d="M160.027 95.9251C162.153 95.0968 162.917 91.9609 161.733 88.9211C160.549 85.8813 157.865 84.0885 155.739 84.9169C153.612 85.7453 152.848 88.8811 154.033 91.921C155.217 94.9608 157.901 96.7535 160.027 95.9251Z" fill="#313D6A" stroke="#313D6A" stroke-miterlimit="10"/>
<path d="M207.54 113.194C209.666 112.366 210.43 109.23 209.246 106.19C208.061 103.15 205.378 101.357 203.251 102.186C201.125 103.014 200.361 106.15 201.545 109.19C202.729 112.23 205.413 114.023 207.54 113.194Z" fill="#FF4D00" stroke="#313D6A" stroke-miterlimit="10"/>
<path d="M175.896 112.604C178.022 111.775 178.786 108.639 177.602 105.6C176.418 102.56 173.734 100.767 171.607 101.595C169.481 102.424 168.717 105.56 169.901 108.599C171.086 111.639 173.769 113.432 175.896 112.604Z" fill="#FF4D00" stroke="#313D6A" stroke-miterlimit="10"/>
<path d="M191.243 94.7521C193.37 93.9237 194.133 90.7879 192.949 87.7481C191.765 84.7082 189.081 82.9155 186.955 83.7439C184.828 84.5723 184.064 87.7081 185.249 90.7479C186.433 93.7878 189.117 95.5805 191.243 94.7521Z" fill="#313D6A" stroke="#313D6A" stroke-miterlimit="10"/>
<path d="M451.743 145.423L469.098 154.701C477.46 159.277 494.191 160.323 507.422 152.902L537.845 136.451L505.826 119.479L451.743 145.423Z" fill="#C9C9C9"/>
<path d="M502.264 87.7212C493.589 93.1478 479.804 92.5087 473.535 89.081L460.528 82.1277V144.405L473.535 151.359C479.804 154.786 493.528 154.619 502.264 150.011L528.103 136.129V72.3533L502.264 87.7335V87.7212Z" fill="white" stroke="#313D6A" stroke-miterlimit="10"/>
<path d="M503.298 88.7553V88.7431C493.495 94.8739 477.916 94.1534 470.832 90.2778L456.132 82.4168V87.1717L470.832 95.0327C477.916 98.9083 493.495 99.6288 503.298 93.498L532.499 77.5886V72.3493L503.298 88.7553Z" fill="white" stroke="#313D6A" stroke-miterlimit="10"/>
<path d="M503.299 88.7431V88.7553L532.5 72.3493L502.045 56.8511L456.137 82.4168L470.837 90.2778C477.917 94.1534 493.496 94.874 503.299 88.7431Z" fill="#313D6A" stroke="#313D6A" stroke-miterlimit="10"/>
<path d="M492.091 66.6702V73.4077C492.091 76.2859 496.76 78.5005 502.521 78.3499C508.281 78.1992 512.95 75.7485 512.95 72.8663V66.1288L492.091 66.6702Z" fill="white"/>
<path d="M502.695 71.613C508.456 71.4147 513.046 68.9224 512.947 66.0462C512.848 63.1701 508.098 60.9993 502.336 61.1976C496.575 61.3959 491.985 63.8882 492.084 66.7644C492.183 69.6405 496.934 71.8113 502.695 71.613Z" fill="#C9C9C9"/>
<path d="M476.206 77.5235V81.4642C476.206 83.634 479.723 85.299 484.063 85.1851C488.402 85.0711 491.92 83.2229 491.92 81.0571V77.1164L476.206 77.5235Z" fill="white"/>
<path d="M484.193 81.2503C488.532 81.1009 491.989 79.2239 491.914 77.0578C491.839 74.8917 488.262 73.2569 483.923 73.4062C479.584 73.5555 476.127 75.4326 476.202 77.5987C476.276 79.7647 479.854 81.3996 484.193 81.2503Z" fill="#C9C9C9"/>
<path d="M502.264 134.835V134.822C501.885 135.058 501.495 135.278 501.1 135.494V138.637C501.495 138.425 501.885 138.201 502.264 137.965L524.353 125.846V122.715L502.264 134.835Z" fill="#FF4D00"/>
<path d="M502.264 123.79V123.778C501.885 124.014 501.495 124.234 501.1 124.45V127.592C501.495 127.381 501.885 127.157 502.264 126.921L524.353 114.801V111.671L502.264 123.79Z" fill="#FF4D00"/>
<path d="M502.264 113.157V113.144C501.885 113.381 501.495 113.6 501.1 113.816V116.959C501.495 116.747 501.885 116.523 502.264 116.287L524.353 104.168V101.037L502.264 113.157Z" fill="#FF4D00"/>
<path d="M502.264 102.413V102.401C501.885 102.637 501.495 102.857 501.1 103.073V106.216C501.495 106.004 501.885 105.78 502.264 105.544L524.353 93.4247V90.2941L502.264 102.413Z" fill="#FF4D00"/>
<path d="M477.883 137.819V140.953C482.646 142.183 488.94 142.386 494.684 141.018V137.876C488.94 139.243 482.646 139.048 477.883 137.819Z" fill="#FF4D00"/>
<path d="M472.22 135.478L464.278 131.232V134.362L472.22 138.608V135.478Z" fill="#FF4D00"/>
<path d="M472.22 124.433L464.278 120.187V123.322L472.22 127.564V124.433Z" fill="#FF4D00"/>
<path d="M477.883 126.778V129.913C482.646 131.142 488.94 131.346 494.684 129.978V126.835C488.94 128.203 482.646 128.003 477.883 126.778Z" fill="#FF4D00"/>
<path d="M477.883 116.141V119.275C482.646 120.505 488.94 120.708 494.684 119.34V116.198C488.94 117.57 482.646 117.37 477.883 116.141Z" fill="#FF4D00"/>
<path d="M472.22 113.8L464.278 109.554V112.684L472.22 116.93V113.8Z" fill="#FF4D00"/>
<path d="M472.22 103.057L464.278 98.8106V101.945L472.22 106.187V103.057Z" fill="#FF4D00"/>
<path d="M477.883 105.401V108.536C482.646 109.766 488.94 109.969 494.684 108.601V105.458C488.94 106.826 482.646 106.627 477.883 105.401Z" fill="#FF4D00"/>
<path d="M203.52 171.738L160.046 196.253L127.975 178.207L171.445 153.691L203.52 171.738Z" fill="#C9C9C9"/>
<path d="M156.61 163.576L129.274 178.923L95.5782 160.026L122.919 144.678L156.61 163.576Z" fill="#C9C9C9"/>
<path d="M174.429 149.828L151.025 162.88V130.804L174.429 117.753V149.828Z" fill="#313D6A" stroke="#313D6A" stroke-miterlimit="10"/>
<path d="M148.582 103.374L125.174 116.426L151.025 130.78L174.429 117.728L148.582 103.374Z" fill="white" stroke="#313D6A" stroke-miterlimit="10"/>
<path d="M129.648 174.864L103.525 160.164V115.233L117.541 106.794L129.648 128.818V174.864Z" fill="white" stroke="#313D6A" stroke-miterlimit="10"/>
<path d="M108.247 116.654L116.283 111.813L123.224 124.441L108.247 116.654Z" fill="#FF4D00"/>
<path d="M138.885 94.8088L117.541 106.794L129.648 128.818L150.992 116.833L138.885 94.8088Z" fill="#313D6A" stroke="#313D6A" stroke-miterlimit="10"/>
<path d="M150.992 162.88L129.648 174.864V128.818L150.992 116.833V162.88Z" fill="white" stroke="#313D6A" stroke-miterlimit="10"/>
<path d="M160.685 191.564L134.566 176.863V153.199L148.582 144.756L160.685 166.78V191.564Z" fill="white" stroke="#313D6A" stroke-miterlimit="10"/>
<path d="M196.095 171.595L160.685 191.564V166.779L196.095 146.815V171.595Z" fill="white" stroke="#313D6A" stroke-miterlimit="10"/>
<path d="M139.793 170.57L154.001 178.536V170.627L139.793 162.664V170.57Z" fill="#313D6A" stroke="#313D6A" stroke-miterlimit="10"/>
<path d="M183.987 124.787L148.582 144.756L160.685 166.779L196.095 146.815L183.987 124.787Z" fill="white" stroke="#313D6A" stroke-miterlimit="10"/>
<path d="M316.445 208.336L312.321 211.035L308.665 203.956L304.537 206.651L300.885 199.571L296.757 202.27L293.102 195.191L288.978 197.89L288.811 208.336L319.934 225.866L320.1 215.415L316.445 208.336Z" fill="#FF4D00"/>
<path d="M486.892 311.49L492.539 315.183L497.542 305.49L503.192 309.182L508.195 299.489L513.842 303.181L518.845 293.493L524.496 297.185L524.72 311.49L482.113 335.485L481.889 321.179L486.892 311.49Z" fill="#FF4D00"/>
<path d="M193.628 27.4627L196.66 29.5349C196.709 29.9175 196.827 30.2229 197.011 30.459C197.263 30.7887 197.658 31.1063 198.203 31.4116C198.895 31.8024 199.416 31.9897 199.763 31.9734C199.995 31.9652 200.174 31.839 200.292 31.5989C200.373 31.4238 200.414 31.0411 200.414 30.4508V28.9853C199.62 29.6244 198.619 29.6041 197.409 28.9242C196.062 28.167 194.991 26.9987 194.206 25.415C193.587 24.1693 193.281 22.8707 193.281 21.5313C193.281 19.85 193.685 18.7916 194.495 18.356C195.305 17.9204 196.31 18.0425 197.515 18.7183C198.757 19.4144 199.779 20.534 200.585 22.0769V20.6683L203.072 22.0646V31.0696C203.072 32.2543 202.975 33.0848 202.779 33.5611C202.584 34.0374 202.311 34.3427 201.957 34.4811C201.603 34.6154 201.134 34.6154 200.544 34.473C199.954 34.3305 199.209 34.0089 198.309 33.5C196.607 32.5433 195.402 31.5744 194.69 30.5933C193.978 29.6122 193.623 28.6718 193.623 27.7762C193.615 27.6867 193.619 27.5849 193.628 27.4627ZM195.997 22.9033C195.997 23.9658 196.204 24.8614 196.616 25.5901C197.027 26.3147 197.536 26.848 198.142 27.19C198.79 27.5523 199.339 27.6093 199.787 27.3528C200.235 27.0964 200.459 26.4694 200.459 25.4761C200.459 24.438 200.243 23.5424 199.815 22.8015C199.388 22.0565 198.847 21.4988 198.191 21.1324C197.556 20.7741 197.031 20.7294 196.616 20.9899C196.204 21.2504 195.997 21.8896 195.997 22.9033Z" fill="#313D6A"/>
<path d="M208.238 35.0022L205.584 33.5122V23.4732L208.051 24.8573V26.2862C208.474 25.8506 208.853 25.6186 209.191 25.5942C209.529 25.5697 209.911 25.6756 210.339 25.9158C210.945 26.2537 211.528 26.7503 212.085 27.3976L211.263 29.2499C210.815 28.7085 210.4 28.3299 210.017 28.1141C209.647 27.9065 209.329 27.8291 209.073 27.8902C208.816 27.9513 208.613 28.2077 208.462 28.6596C208.316 29.1115 208.238 30.1903 208.238 31.9001V35.0022V35.0022Z" fill="#313D6A"/>
<path d="M212.61 32.299C212.61 31.4156 212.826 30.6869 213.262 30.1048C213.697 29.5226 214.312 29.2377 215.11 29.2499C215.908 29.2621 216.795 29.5471 217.781 30.0967C219.299 30.9475 220.545 32.1403 221.514 33.671C222.483 35.2016 222.967 36.7201 222.967 38.2264C222.967 39.7449 222.478 40.73 221.497 41.1778C220.516 41.6256 219.283 41.4343 217.797 40.5998C216.877 40.0827 216.002 39.3825 215.163 38.4991C214.328 37.6157 213.693 36.6468 213.258 35.6006C212.83 34.5503 212.61 33.4511 212.61 32.299ZM215.334 33.9681C215.334 34.9655 215.57 35.8571 216.042 36.655C216.515 37.4488 217.097 38.0432 217.789 38.4299C218.481 38.8207 219.063 38.8818 219.531 38.6131C219.999 38.3485 220.235 37.7094 220.235 36.7038C220.235 35.7227 219.999 34.8312 219.531 34.0414C219.063 33.2476 218.481 32.6573 217.789 32.2705C217.097 31.8838 216.515 31.8187 216.042 32.0833C215.57 32.3479 215.334 32.9708 215.334 33.9681Z" fill="#313D6A"/>
<path d="M226.92 45.489L223.745 33.671L226.326 35.1203L228.206 42.7533L229.937 37.1476L232.497 38.5847L234.17 46.0997L236.088 40.5998L238.705 42.0694L235.481 50.2968L232.929 48.8639L231.199 41.4384L229.497 46.9383L226.92 45.489Z" fill="#313D6A"/>
<path d="M244.706 45.4401V47.557L242.89 46.5393V50.5858C242.89 51.4041 242.907 51.8926 242.943 52.0473C242.976 52.202 243.057 52.3567 243.179 52.5155C243.302 52.6743 243.452 52.8005 243.627 52.8982C243.871 53.0366 244.23 53.1506 244.694 53.2442L244.922 55.4303C244.303 55.3489 243.607 55.0883 242.825 54.6487C242.345 54.38 241.913 54.0584 241.531 53.6798C241.148 53.3053 240.863 52.9389 240.684 52.5806C240.505 52.2224 240.379 51.8112 240.309 51.3349C240.252 50.9929 240.224 50.3538 240.224 49.4175V45.0412L239.007 44.3573V42.2404L240.224 42.9243V40.9295L242.89 40.8766V44.4224L244.706 45.4401Z" fill="#313D6A"/>
<path d="M249.196 44.1415V49.2343C250.051 48.7132 251.077 48.7865 252.266 49.4582C252.876 49.8001 253.43 50.2235 253.919 50.7283C254.411 51.2291 254.782 51.7298 255.03 52.2224C255.278 52.715 255.449 53.1994 255.539 53.6798C255.628 54.1602 255.677 54.8481 255.677 55.7519V61.6385L253.023 60.1486V54.8481C253.023 53.7978 252.974 53.0976 252.872 52.7597C252.771 52.4178 252.595 52.0962 252.339 51.7827C252.083 51.4733 251.765 51.2087 251.378 50.9929C250.939 50.7446 250.544 50.6306 250.198 50.651C249.852 50.6713 249.599 50.8505 249.436 51.1924C249.278 51.5344 249.196 52.1247 249.196 52.9714V57.9991L246.542 56.5091V42.6556L249.196 44.1415Z" fill="#313D6A"/>
<path d="M403.372 2.58507L403.356 0L406.124 1.41263L406.14 3.99769L403.372 2.58507ZM403.458 14.5822L403.384 4.01805L406.153 5.43067L406.226 15.9948L403.458 14.5822Z" fill="#313D6A"/>
<path d="M418.573 22.2926L415.805 20.88L415.768 15.49C415.76 14.3502 415.695 13.5808 415.577 13.1859C415.455 12.791 415.263 12.4328 414.995 12.1111C414.726 11.7895 414.408 11.5331 414.034 11.3417C413.554 11.0975 413.126 11.012 412.747 11.0812C412.369 11.1504 412.108 11.3702 411.97 11.7366C411.832 12.103 411.766 12.8765 411.775 14.0571L411.807 18.8405L409.039 17.4278L408.966 6.86366L411.534 8.17451L411.547 9.72555C412.45 8.99685 413.594 8.98464 414.982 9.69299C415.593 10.0065 416.151 10.4013 416.66 10.8817C417.169 11.3621 417.551 11.8384 417.812 12.3188C418.072 12.7951 418.256 13.2795 418.361 13.768C418.467 14.2565 418.52 14.912 418.528 15.7262L418.573 22.2926Z" fill="#313D6A"/>
<path d="M430.973 28.6189L428.404 27.308L428.392 25.757C427.969 26.1438 427.468 26.3351 426.89 26.3351C426.312 26.3351 425.726 26.1845 425.136 25.8791C423.935 25.2644 422.901 24.2507 422.037 22.8381C421.174 21.4214 420.735 19.8419 420.723 18.0914C420.71 16.3001 421.117 15.1521 421.944 14.6473C422.77 14.1425 423.821 14.2117 425.095 14.8631C426.263 15.4575 427.277 16.4671 428.14 17.8838L428.103 12.6322L430.871 14.0448L430.973 28.6189ZM423.548 19.3412C423.556 20.4688 423.715 21.3644 424.028 22.0239C424.48 22.9806 425.107 23.6645 425.909 24.0716C426.544 24.3973 427.085 24.3973 427.529 24.0798C427.973 23.7622 428.189 23.058 428.181 21.971C428.172 20.7579 427.949 19.7727 427.513 19.0196C427.077 18.2664 426.52 17.7168 425.844 17.3708C425.188 17.037 424.639 17.0207 424.199 17.322C423.76 17.6151 423.544 18.2908 423.548 19.3412Z" fill="#313D6A"/>
<path d="M439.738 29.7344L442.498 31.607C442.152 32.4457 441.594 32.9382 440.833 33.0848C440.072 33.2273 439.115 33.0074 437.967 32.4212C436.147 31.493 434.8 30.2066 433.916 28.5619C433.22 27.247 432.866 25.8588 432.858 24.3933C432.846 22.6428 433.29 21.5029 434.189 20.9737C435.089 20.4444 436.229 20.534 437.617 21.2383C439.172 22.0321 440.406 23.1761 441.309 24.6742C442.217 26.1723 442.657 27.9798 442.632 30.1008L435.7 26.5631C435.724 27.4017 435.952 28.1589 436.383 28.8388C436.815 29.5186 437.348 30.0194 437.983 30.345C438.415 30.5649 438.781 30.6341 439.074 30.5445C439.367 30.459 439.587 30.1903 439.738 29.7344ZM439.872 26.9906C439.848 26.1723 439.636 25.4517 439.237 24.8289C438.842 24.206 438.358 23.7501 437.796 23.4651C437.194 23.1557 436.693 23.1231 436.302 23.3674C435.911 23.6116 435.72 24.1164 435.732 24.8818L439.872 26.9906Z" fill="#313D6A"/>
<path d="M443.589 35.0511L447.322 31.5337L443.671 24.5683L447.049 26.2903L448.922 30.1374L450.852 28.2281L454.1 29.885L450.591 33.0807L454.499 40.6161L451.1 38.8818L448.951 34.5259L446.825 36.7039L443.589 35.0511Z" fill="#313D6A"/>
<path d="M471.532 32.9056C471.532 32.9056 468.613 31.147 469.823 29.2458C470.547 28.106 474.769 26.16 477.122 27.0923C483.521 29.6326 484.535 34.7213 484.877 38.3811C484.877 38.3811 491.277 40.3637 491.281 48.0741C491.281 51.5466 485.699 53.92 484.91 53.7002C482.907 53.1506 471.532 32.9056 471.532 32.9056Z" fill="#FF4D00"/>
<path d="M467.168 35.4052C467.168 35.4052 466.847 27.5401 472.184 29.425C478.657 31.7088 480.167 37.1598 480.509 40.7097C480.509 40.7097 486.994 42.5824 486.998 50.3335C486.998 54.6854 482.414 54.4207 480.37 53.2931C478.575 52.3038 468.65 46.7429 466.826 45.6356C465.003 44.5283 462.833 41.5972 462.833 37.8071C462.833 34.017 465.687 33.9478 467.168 35.4052Z" fill="white" stroke="#313D6A" stroke-miterlimit="10"/>
<path d="M448.25 218.908C448.25 218.908 445.331 217.15 446.541 215.248C447.265 214.109 451.487 212.163 453.84 213.095C460.239 215.635 461.253 220.72 461.595 224.384C461.595 224.384 467.995 226.366 467.999 234.077C467.999 237.549 462.421 239.919 461.628 239.703C459.625 239.157 448.25 218.908 448.25 218.908Z" fill="#C9C9C9"/>
<path d="M443.89 221.412C443.89 221.412 443.569 213.547 448.906 215.432C455.379 217.715 456.889 223.166 457.231 226.716C457.231 226.716 463.716 228.589 463.72 236.34C463.72 240.692 459.136 240.427 457.093 239.3C455.297 238.311 445.376 232.75 443.548 231.642C441.725 230.539 439.555 227.604 439.555 223.814C439.555 220.024 442.409 219.955 443.89 221.412Z" fill="white" stroke="#313D6A" stroke-miterlimit="10"/>
<path d="M20.6248 181.529C28.2521 180.319 33.8631 175.733 33.1574 171.285C32.4518 166.838 25.6966 164.213 18.0693 165.423C10.442 166.634 4.83098 171.22 5.53667 175.668C6.24235 180.115 12.9975 182.74 20.6248 181.529Z" fill="#C9C9C9"/>
<path d="M14.0495 178.41C17.0813 178.136 19.4077 176.463 19.2456 174.674C19.0836 172.885 16.4945 171.657 13.4628 171.931C10.431 172.206 8.10462 173.879 8.26666 175.668C8.4287 177.457 11.0178 178.685 14.0495 178.41Z" fill="white"/>
<path d="M13.7639 175.817V161.361" stroke="#313D6A" stroke-miterlimit="10" stroke-linecap="round"/>
<path d="M13.7639 127.499L0.203491 160.16C0.203491 164.072 6.27331 167.248 13.7639 167.248C21.2545 167.248 27.3243 164.076 27.3243 160.16L13.7639 127.499Z" fill="white" stroke="#313D6A" stroke-miterlimit="10"/>
<path d="M269.604 127.745C272.844 127.231 275.227 125.283 274.927 123.393C274.628 121.504 271.758 120.388 268.519 120.902C265.279 121.417 262.896 123.365 263.196 125.255C263.495 127.144 266.365 128.259 269.604 127.745Z" fill="#C9C9C9"/>
<path d="M266.815 126.427C268.103 126.311 269.091 125.601 269.022 124.842C268.953 124.083 267.854 123.562 266.566 123.679C265.279 123.795 264.291 124.505 264.359 125.264C264.428 126.023 265.528 126.544 266.815 126.427Z" fill="white"/>
<path d="M266.701 125.317V119.182" stroke="#313D6A" stroke-miterlimit="10" stroke-linecap="round"/>
<path d="M266.701 104.803L260.945 118.673C260.945 120.334 263.522 121.681 266.701 121.681C269.881 121.681 272.458 120.334 272.458 118.673L266.701 104.803Z" fill="white" stroke="#313D6A" stroke-miterlimit="10" stroke-linecap="round"/>
<path d="M24.548 173.305L29.9054 176.806L34.6481 167.618L40.0055 171.119L44.7481 161.931L50.1015 165.432L54.8482 156.24L60.2015 159.741L60.4173 173.305L20.0211 196.058L19.8053 182.498L24.548 173.305Z" fill="#FF4D00"/>
<path d="M580.142 135.775V99.8161L574.271 102.906V138.865" fill="white"/>
<path d="M580.142 135.775V99.8161L574.271 102.906V138.865" stroke="#313D6A" stroke-width="0.9518" stroke-miterlimit="10"/>
<path d="M568.401 141.959V115.331L562.531 118.425V145.049" fill="white"/>
<path d="M568.401 141.959V115.331L562.531 118.425V145.049" stroke="black" stroke-width="0.9518" stroke-miterlimit="10"/>
<path d="M556.66 148.143V94.0801L550.79 97.17V151.232" fill="white"/>
<path d="M556.66 148.143V94.0801L550.79 97.17V151.232" stroke="#313D6A" stroke-width="0.9518" stroke-miterlimit="10"/>
<path d="M544.916 154.326V111.174L539.045 114.264V157.416" fill="white"/>
<path d="M544.916 154.326V111.174L539.045 114.264V157.416" stroke="#313D6A" stroke-width="0.9518" stroke-miterlimit="10"/>
<path d="M533.175 160.51V140.347L527.305 143.437V163.6" fill="white"/>
<path d="M533.175 160.51V140.347L527.305 143.437V163.6" stroke="#313D6A" stroke-width="0.9518" stroke-miterlimit="10"/>
<path d="M521.434 166.69V133.096L515.564 136.19V169.784" fill="white"/>
<path d="M521.434 166.69V133.096L515.564 136.19V169.784" stroke="#313D6A" stroke-width="0.9518" stroke-miterlimit="10"/>
<path d="M577.695 139.72L583.565 136.63V100.667L577.695 103.761V139.72Z" fill="#C9C9C9"/>
<path d="M565.955 145.904L571.825 142.814V116.185L565.955 119.275V145.904Z" fill="#313D6A" stroke="#313D6A" stroke-width="0.9518" stroke-miterlimit="10"/>
<path d="M554.21 152.087L560.084 148.998V94.9351L554.21 98.0249V152.087Z" fill="#C9C9C9"/>
<path d="M542.469 158.271L548.339 155.177V112.029L542.469 115.119V158.271Z" fill="#FF4D00"/>
<path d="M530.728 164.455L536.599 161.361V141.202L530.728 144.291V164.455Z" fill="#313D6A" stroke="#313D6A" stroke-width="0.9518" stroke-miterlimit="10"/>
<path d="M518.984 170.639L524.858 167.545V133.951L518.984 137.045V170.639Z" fill="#FF4D00"/>
<path d="M84.4482 157.495C90.0416 156.607 94.1563 153.244 93.6387 149.982C93.1212 146.72 88.1673 144.795 82.574 145.683C76.9807 146.57 72.866 149.934 73.3835 153.196C73.9011 156.458 78.8549 158.382 84.4482 157.495Z" fill="#C9C9C9"/>
<path d="M80.4094 155.14C82.6328 154.938 84.3389 153.711 84.2201 152.399C84.1013 151.087 82.2025 150.187 79.979 150.388C77.7556 150.589 76.0495 151.816 76.1683 153.128C76.2871 154.441 78.1859 155.341 80.4094 155.14Z" fill="white"/>
<path d="M80.2021 153.02V145.041" stroke="#313D6A" stroke-miterlimit="10" stroke-linecap="round"/>
<path d="M80.2034 126.351L72.7209 144.377C72.7209 146.539 76.0713 148.289 80.2034 148.289C84.3354 148.289 87.6858 146.539 87.6858 144.377L80.2034 126.351Z" fill="#313D6A" stroke="#313D6A" stroke-miterlimit="10"/>
<path d="M591.272 201.603L563.809 185.392V162.432L555.024 167.455L568.592 141.735L580.431 152.926L573.616 156.822V179.786L601.079 195.993" fill="#FF4D00"/>
<path d="M562.795 158.906L569.203 146.758L574.792 152.043L562.795 158.906Z" fill="#FF4D00"/>
<path d="M303.722 285.768C311.051 284.605 316.443 280.197 315.765 275.923C315.087 271.649 308.595 269.126 301.266 270.289C293.936 271.452 288.544 275.86 289.222 280.134C289.9 284.409 296.392 286.931 303.722 285.768Z" fill="#C9C9C9"/>
<path d="M300.803 282.78C303.716 282.516 305.952 280.91 305.796 279.193C305.641 277.475 303.153 276.297 300.24 276.561C297.327 276.825 295.091 278.431 295.247 280.148C295.402 281.866 297.89 283.044 300.803 282.78Z" fill="white"/>
<path d="M300.539 266.392C308.211 266.392 314.429 260.173 314.429 252.502C314.429 244.831 308.211 238.612 300.539 238.612C292.868 238.612 286.649 244.831 286.649 252.502C286.649 260.173 292.868 266.392 300.539 266.392Z" fill="white" stroke="#313D6A" stroke-miterlimit="10"/>
<path d="M311.026 245.329C311.282 246.347 311.421 247.413 311.421 248.512C311.421 255.694 305.599 261.515 298.414 261.515C294.62 261.515 291.204 259.887 288.827 257.293C290.712 261.938 295.263 265.211 300.584 265.211C307.59 265.211 313.269 259.532 313.269 252.526C313.269 249.852 312.439 247.373 311.026 245.329Z" fill="#C9C9C9"/>
<path d="M300.539 280.278V251.912" stroke="#313D6A" stroke-miterlimit="10" stroke-linecap="round"/>
<path d="M306.76 254.802C306.76 254.802 306.471 258.564 300.539 258.564" stroke="#313D6A" stroke-miterlimit="10" stroke-linecap="round"/>
<path d="M294.319 257.477C294.319 257.477 294.608 261.238 300.539 261.238" stroke="#313D6A" stroke-miterlimit="10" stroke-linecap="round"/>
<path d="M294.868 320.243L289.413 309.907L293.175 307.7L295.723 313.111L296.464 314.983C296.66 314.283 296.782 313.823 296.835 313.607C296.953 313.155 297.079 312.699 297.217 312.235L299.794 303.816L303.479 301.655L298.097 318.35L294.868 320.243Z" fill="#313D6A"/>
<path d="M308.343 302.929L305.095 304.252C305.461 302.729 306.088 301.39 306.98 300.238C307.871 299.086 309.198 297.995 310.957 296.961C312.553 296.025 313.745 295.516 314.527 295.434C315.309 295.353 315.858 295.512 316.176 295.907C316.493 296.301 316.652 297.278 316.652 298.834L316.615 303.039C316.615 304.228 316.672 305.074 316.786 305.571C316.9 306.068 317.116 306.548 317.43 307.008L313.888 309.088C313.794 308.905 313.68 308.62 313.542 308.233C313.481 308.054 313.44 307.94 313.416 307.887C312.805 308.84 312.15 309.67 311.454 310.379C310.757 311.087 310.012 311.669 309.223 312.133C307.83 312.952 306.731 313.216 305.929 312.931C305.127 312.646 304.724 311.926 304.724 310.77C304.724 310.004 304.907 309.215 305.274 308.4C305.64 307.586 306.149 306.829 306.809 306.121C307.468 305.416 308.417 304.582 309.658 303.613C311.331 302.314 312.492 301.341 313.139 300.69V300.332C313.139 299.644 312.968 299.253 312.63 299.159C312.288 299.066 311.649 299.294 310.704 299.847C310.065 300.222 309.569 300.637 309.214 301.097C308.852 301.561 308.563 302.172 308.343 302.929ZM313.135 303.023C312.675 303.446 311.95 304.053 310.957 304.85C309.964 305.644 309.312 306.235 309.007 306.621C308.539 307.228 308.307 307.786 308.307 308.294C308.307 308.795 308.494 309.121 308.868 309.267C309.243 309.414 309.719 309.316 310.297 308.978C310.945 308.6 311.559 308.026 312.146 307.256C312.577 306.678 312.862 306.117 313 305.571C313.094 305.209 313.139 304.602 313.139 303.743V303.023H313.135Z" fill="#313D6A"/>
<path d="M320.186 305.388V286.702L323.768 284.602V303.287L320.186 305.388Z" fill="#313D6A"/>
<path d="M336.348 295.898V293.871C335.855 294.881 335.208 295.833 334.406 296.721C333.604 297.608 332.757 298.313 331.861 298.838C330.954 299.371 330.135 299.652 329.415 299.676C328.694 299.701 328.169 299.448 327.847 298.915C327.526 298.382 327.363 297.478 327.363 296.204V287.638L330.945 285.538V291.758C330.945 293.664 331.011 294.791 331.145 295.141C331.275 295.491 331.515 295.691 331.865 295.74C332.216 295.784 332.655 295.65 333.193 295.337C333.803 294.978 334.353 294.49 334.837 293.867C335.322 293.248 335.651 292.638 335.831 292.035C336.01 291.433 336.099 290.162 336.099 288.225V282.513L339.682 280.413V293.948L336.348 295.898Z" fill="#313D6A"/>
<path d="M351.223 282.859L354.793 281.365C354.333 282.945 353.608 284.365 352.619 285.631C351.63 286.898 350.392 287.964 348.902 288.839C346.549 290.219 344.807 290.476 343.675 289.601C342.784 288.892 342.336 287.598 342.336 285.721C342.336 283.478 342.922 281.377 344.095 279.419C345.267 277.461 346.749 275.955 348.544 274.904C350.559 273.724 352.147 273.455 353.311 274.102C354.476 274.75 355.033 276.46 354.98 279.236L346.008 284.504C346.032 285.55 346.321 286.21 346.875 286.474C347.429 286.739 348.117 286.633 348.939 286.148C349.501 285.819 349.973 285.391 350.356 284.858C350.738 284.317 351.027 283.657 351.223 282.859ZM351.426 279.122C351.402 278.1 351.133 277.469 350.624 277.229C350.116 276.989 349.493 277.082 348.764 277.51C347.982 277.97 347.335 278.633 346.826 279.501C346.317 280.368 346.065 281.292 346.073 282.261L351.426 279.122Z" fill="#313D6A"/>
<path d="M421.655 227.286L380.257 203.899L321.257 237.256L362.65 260.644L421.655 227.286Z" fill="#C9C9C9"/>
<path d="M362.65 255.759L412.479 227.604V161.748L362.65 189.903V255.759Z" fill="white" stroke="#313D6A" stroke-miterlimit="10"/>
<path d="M402.285 181.883L407.834 178.748V171.408L402.285 174.547V181.883Z" fill="#FF4D00"/>
<path d="M402.285 192.467L407.834 189.333V181.997L402.285 185.131V192.467Z" fill="#FF4D00"/>
<path d="M402.285 203.068L407.834 199.929V192.594L402.285 195.732V203.068Z" fill="white"/>
<path d="M402.285 213.673L407.834 210.538V203.198L402.285 206.337V213.673Z" fill="#FF4D00"/>
<path d="M402.285 224.266L407.834 221.131V213.795L402.285 216.93V224.266Z" fill="#FF4D00"/>
<path d="M391.184 188.156L396.732 185.017V177.682L391.184 180.816V188.156Z" fill="#FF4D00"/>
<path d="M391.184 198.741L407.834 189.333V171.408L391.184 180.816V198.741Z" fill="#FF4D00"/>
<path d="M391.184 198.741L396.732 195.602V188.266L391.184 191.405V198.741Z" fill="#FF4D00"/>
<path d="M391.184 209.337L396.732 206.203V198.867L391.184 202.002V209.337Z" fill="white"/>
<path d="M391.184 219.946L396.732 216.808V209.472L391.184 212.606V219.946Z" fill="#FF4D00"/>
<path d="M391.184 230.539L407.834 221.131V203.198L391.184 212.606V230.539Z" fill="#FF4D00"/>
<path d="M391.184 230.539L396.732 227.404V220.069L391.184 223.203V230.539Z" fill="#FF4D00"/>
<path d="M380.082 194.425L385.631 191.291V183.955L380.082 187.09V194.425Z" fill="#FF4D00"/>
<path d="M380.082 205.01L385.631 201.875V194.539L380.082 197.674V205.01Z" fill="#FF4D00"/>
<path d="M380.082 215.611L385.631 212.476V205.14L380.082 208.275V215.611Z" fill="white"/>
<path d="M380.082 226.216L385.631 223.081V215.745L380.082 218.88V226.216Z" fill="#FF4D00"/>
<path d="M380.082 236.812L385.631 233.674V226.338L380.082 229.477V236.812Z" fill="#FF4D00"/>
<path d="M368.98 200.699L374.529 197.564V190.228L368.98 193.363V200.699Z" fill="#FF4D00"/>
<path d="M368.98 211.283L385.631 201.875V183.955L368.98 193.363V211.283Z" fill="#FF4D00"/>
<path d="M368.98 211.283L374.529 208.149V200.813L368.98 203.947V211.283Z" fill="#FF4D00"/>
<path d="M368.98 221.884L374.529 218.745V211.41L368.98 214.548V221.884Z" fill="white"/>
<path d="M368.98 232.489L374.529 229.354V222.014L368.98 225.153V232.489Z" fill="#FF4D00"/>
<path d="M368.98 243.082L385.631 233.674V215.745L368.98 225.153V243.082Z" fill="#FF4D00"/>
<path d="M368.98 243.082L374.529 239.947V232.611L368.98 235.746V243.082Z" fill="#FF4D00"/>
<path d="M362.65 255.759L329.594 237.081V171.225L362.65 189.903V255.759Z" fill="white" stroke="#313D6A" stroke-miterlimit="10"/>
<path d="M412.479 161.748L379.422 143.074L329.594 171.225L362.65 189.903L412.479 161.748Z" fill="white" stroke="#313D6A" stroke-miterlimit="10"/>
<path d="M364.519 181.345L373.719 176.069V170.598L364.519 175.874V181.345Z" fill="#313D6A" stroke="#313D6A" stroke-miterlimit="10"/>
<path d="M364.519 181.345L346.122 170.952V165.481L364.519 175.874V181.345Z" fill="white" stroke="#313D6A" stroke-miterlimit="10"/>
<path d="M373.719 170.598L355.322 160.205L346.122 165.481L364.519 175.874L373.719 170.598Z" fill="white" stroke="#313D6A" stroke-miterlimit="10"/>
<path d="M385.391 169.369L394.591 164.097V158.625L385.391 163.897V169.369Z" fill="#313D6A" stroke="#313D6A" stroke-miterlimit="10"/>
<path d="M385.391 169.369L366.994 158.975V153.504L385.391 163.897V169.369Z" fill="white" stroke="#313D6A" stroke-miterlimit="10"/>
<path d="M394.591 158.625L376.194 148.232L366.994 153.504L385.391 163.897L394.591 158.625Z" fill="white" stroke="#313D6A" stroke-miterlimit="10"/>
<path d="M500.554 207.155L496.74 209.651L493.361 203.325L489.542 205.82L486.163 199.494L482.345 201.989L478.966 195.663L475.151 198.159V207.583L503.937 222.906V213.482L500.554 207.155Z" fill="#FF4D00"/>
<path d="M497.656 226.419L494.484 227.669C494.843 226.187 495.453 224.893 496.325 223.777C497.196 222.666 498.486 221.615 500.204 220.626C501.763 219.731 502.924 219.246 503.685 219.177C504.446 219.108 504.984 219.267 505.293 219.657C505.602 220.048 505.761 221.001 505.761 222.515L505.724 226.615C505.724 227.775 505.781 228.597 505.891 229.086C506.005 229.574 506.213 230.042 506.518 230.494L503.062 232.481C502.972 232.302 502.859 232.021 502.728 231.642C502.671 231.467 502.631 231.357 502.602 231.304C502.004 232.228 501.369 233.03 500.689 233.71C500.009 234.39 499.284 234.952 498.515 235.396C497.155 236.177 496.084 236.426 495.303 236.137C494.521 235.852 494.126 235.143 494.126 234.016C494.126 233.271 494.305 232.501 494.659 231.711C495.014 230.922 495.514 230.189 496.158 229.509C496.801 228.829 497.725 228.027 498.934 227.099C500.567 225.853 501.698 224.917 502.329 224.29V223.944C502.329 223.272 502.162 222.89 501.833 222.796C501.503 222.702 500.876 222.918 499.956 223.447C499.333 223.806 498.849 224.205 498.503 224.648C498.152 225.092 497.872 225.682 497.656 226.419ZM502.329 226.566C501.881 226.973 501.173 227.559 500.204 228.324C499.235 229.09 498.6 229.656 498.303 230.026C497.847 230.612 497.619 231.154 497.619 231.65C497.619 232.139 497.802 232.456 498.165 232.603C498.531 232.75 498.995 232.66 499.557 232.338C500.188 231.976 500.786 231.422 501.36 230.682C501.784 230.124 502.061 229.578 502.195 229.045C502.284 228.695 502.333 228.101 502.333 227.262V226.566H502.329Z" fill="#313D6A"/>
<path d="M521.21 222.051L517.717 224.058V217.321C517.717 215.896 517.644 215.016 517.493 214.683C517.343 214.349 517.103 214.166 516.765 214.125C516.431 214.084 516.024 214.202 515.552 214.475C514.945 214.821 514.404 215.301 513.923 215.908C513.443 216.515 513.113 217.146 512.934 217.793C512.755 218.44 512.665 219.503 512.665 220.98V226.961L509.172 228.968V215.765L512.417 213.901V215.839C513.569 213.685 515.018 212.106 516.769 211.1C517.538 210.656 518.243 210.392 518.882 210.302C519.521 210.213 520.001 210.29 520.331 210.534C520.657 210.779 520.885 211.137 521.015 211.609C521.145 212.081 521.206 212.826 521.206 213.848V222.051H521.21Z" fill="#313D6A"/>
<path d="M527.366 209.337L524.194 210.587C524.553 209.105 525.163 207.811 526.035 206.695C526.906 205.584 528.196 204.534 529.914 203.544C531.473 202.649 532.634 202.164 533.395 202.095C534.156 202.026 534.693 202.185 535.003 202.576C535.312 202.966 535.471 203.919 535.471 205.433L535.434 209.533C535.434 210.693 535.491 211.515 535.601 212.004C535.715 212.492 535.923 212.961 536.228 213.412L532.772 215.399C532.682 215.22 532.568 214.939 532.438 214.56C532.381 214.385 532.34 214.275 532.312 214.223C531.713 215.147 531.078 215.949 530.399 216.629C529.719 217.308 528.994 217.87 528.225 218.314C526.865 219.096 525.794 219.344 525.013 219.055C524.231 218.77 523.836 218.061 523.836 216.934C523.836 216.189 524.015 215.419 524.369 214.63C524.724 213.84 525.224 213.107 525.868 212.427C526.511 211.747 527.435 210.945 528.644 210.017C530.276 208.772 531.408 207.835 532.039 207.208V206.862C532.039 206.191 531.872 205.808 531.542 205.714C531.213 205.621 530.586 205.836 529.666 206.366C529.043 206.724 528.558 207.123 528.212 207.567C527.862 208.01 527.577 208.601 527.366 209.337ZM532.039 209.484C531.591 209.891 530.883 210.477 529.914 211.243C528.945 212.008 528.31 212.574 528.013 212.944C527.557 213.531 527.329 214.072 527.329 214.569C527.329 215.057 527.512 215.375 527.875 215.521C528.241 215.668 528.705 215.578 529.267 215.257C529.898 214.894 530.496 214.341 531.07 213.6C531.494 213.042 531.77 212.496 531.905 211.963C531.994 211.613 532.043 211.019 532.043 210.18V209.484H532.039Z" fill="#313D6A"/>
<path d="M538.911 211.874V193.652L542.404 191.645V209.867L538.911 211.874Z" fill="#313D6A"/>
<path d="M544.329 195.553L548.046 193.416L551.205 200.972L554.287 189.825L557.902 187.745L553.245 203.133L552.41 205.91C552.105 206.858 551.812 207.611 551.535 208.177C551.258 208.743 550.937 209.256 550.578 209.716C550.216 210.176 549.776 210.628 549.247 211.072C548.722 211.515 548.128 211.927 547.464 212.309C546.792 212.696 546.133 213.001 545.49 213.233L545.18 210.677C545.726 210.469 546.218 210.241 546.658 209.989C547.468 209.521 548.071 208.938 548.461 208.238C548.852 207.538 549.149 206.761 549.357 205.902L544.329 195.553Z" fill="#313D6A"/>
<path d="M566.195 182.982V185.766L563.809 187.138V192.459C563.809 193.538 563.834 194.153 563.878 194.303C563.923 194.454 564.029 194.544 564.188 194.564C564.351 194.588 564.546 194.531 564.778 194.397C565.1 194.21 565.568 193.831 566.183 193.253L566.48 195.793C565.67 196.607 564.75 197.312 563.72 197.902C563.089 198.264 562.523 198.484 562.018 198.566C561.513 198.647 561.143 198.586 560.906 198.387C560.67 198.187 560.507 197.829 560.414 197.308C560.341 196.945 560.304 196.147 560.304 194.91V189.154L558.7 190.074V187.289L560.304 186.369V183.747L563.809 179.693V184.354L566.195 182.982Z" fill="#313D6A"/>
<path d="M568.617 179.798V176.566L572.11 174.559V177.791L568.617 179.798ZM568.617 194.788V181.586L572.11 179.579V192.781L568.617 194.788Z" fill="#313D6A"/>
<path d="M587.201 174.807L583.757 177.409C583.639 176.786 583.378 176.42 582.967 176.31C582.556 176.196 582.022 176.33 581.371 176.705C580.5 177.205 579.808 177.905 579.291 178.801C578.774 179.701 578.513 180.853 578.513 182.261C578.513 183.829 578.778 184.781 579.303 185.127C579.828 185.469 580.537 185.388 581.424 184.879C582.088 184.496 582.629 183.996 583.052 183.377C583.476 182.758 583.773 181.936 583.948 180.918L587.38 179.53C587.022 181.309 586.342 182.892 585.328 184.277C584.319 185.661 582.963 186.841 581.265 187.818C579.336 188.93 577.797 189.206 576.649 188.649C575.501 188.091 574.927 186.735 574.927 184.578C574.927 182.4 575.501 180.372 576.653 178.496C577.805 176.619 579.364 175.117 581.326 173.989C582.934 173.065 584.213 172.674 585.161 172.821C586.106 172.963 586.786 173.627 587.201 174.807Z" fill="#313D6A"/>
<path d="M588.617 179.522L592.123 176.973C592.273 177.568 592.574 177.91 593.03 177.999C593.486 178.089 594.125 177.897 594.944 177.425C595.847 176.904 596.527 176.35 596.983 175.756C597.289 175.349 597.443 174.95 597.443 174.559C597.443 174.295 597.362 174.124 597.195 174.042C597.02 173.977 596.633 174.046 596.027 174.254C593.209 175.251 591.422 175.711 590.669 175.63C589.627 175.516 589.102 174.828 589.102 173.558C589.102 172.414 589.554 171.192 590.458 169.894C591.361 168.595 592.762 167.402 594.659 166.311C596.466 165.273 597.806 164.793 598.685 164.878C599.564 164.964 600.167 165.485 600.501 166.446L597.207 168.949C597.065 168.518 596.8 168.278 596.405 168.229C596.01 168.18 595.448 168.367 594.72 168.786C593.8 169.316 593.14 169.825 592.745 170.309C592.481 170.643 592.346 170.956 592.346 171.245C592.346 171.494 592.46 171.64 592.697 171.677C593.01 171.73 594.097 171.429 595.957 170.781C597.818 170.134 599.116 169.906 599.853 170.093C600.582 170.297 600.948 170.952 600.948 172.064C600.948 173.273 600.444 174.604 599.43 176.057C598.42 177.511 596.922 178.805 594.944 179.941C593.144 180.975 591.724 181.427 590.673 181.301C589.627 181.183 588.943 180.588 588.617 179.522Z" fill="#313D6A"/>
<path d="M421.275 303.591C426.136 302.82 429.712 299.898 429.262 297.065C428.813 294.231 424.508 292.56 419.647 293.331C414.787 294.102 411.211 297.024 411.66 299.858C412.11 302.691 416.415 304.363 421.275 303.591Z" fill="#C9C9C9"/>
<path d="M419.341 301.622C421.274 301.447 422.757 300.381 422.653 299.241C422.55 298.102 420.9 297.319 418.968 297.494C417.035 297.669 415.552 298.735 415.656 299.875C415.759 301.015 417.409 301.797 419.341 301.622Z" fill="white"/>
<path d="M419.176 290.745C424.261 290.745 428.384 286.622 428.384 281.536C428.384 276.45 424.261 272.328 419.176 272.328C414.09 272.328 409.967 276.45 409.967 281.536C409.967 286.622 414.09 290.745 419.176 290.745Z" fill="white" stroke="#313D6A" stroke-width="1.0029" stroke-miterlimit="10" stroke-linecap="round"/>
<path d="M426.129 276.777C426.3 277.453 426.389 278.157 426.389 278.886C426.389 283.649 422.53 287.508 417.767 287.508C415.251 287.508 412.988 286.429 411.408 284.711C412.658 287.789 415.675 289.963 419.204 289.963C423.849 289.963 427.615 286.197 427.615 281.552C427.619 279.781 427.069 278.137 426.129 276.777Z" fill="#C9C9C9"/>
<path d="M419.176 299.957V281.145" stroke="#313D6A" stroke-width="1.0029" stroke-miterlimit="10" stroke-linecap="round"/>
<path d="M423.299 283.063C423.299 283.063 423.108 285.558 419.176 285.558" stroke="#313D6A" stroke-width="1.0029" stroke-miterlimit="10" stroke-linecap="round"/>
<path d="M415.052 284.834C415.052 284.834 415.243 287.329 419.176 287.329" stroke="#313D6A" stroke-width="1.0029" stroke-miterlimit="10" stroke-linecap="round"/>
<path d="M120.59 253.483C119.056 254.985 116.133 258.152 115.005 260.367C114.187 261.975 115.86 264.609 119.174 262.427C124.087 259.191 125.903 257.578 125.329 254.432C124.934 252.282 122.162 251.948 120.59 253.483Z" fill="#313D6A"/>
<path d="M107.938 249.925C106.411 251.154 103.48 253.776 102.263 255.689C101.379 257.082 102.666 259.618 105.87 257.924C110.616 255.413 112.408 254.106 112.159 251.199C111.988 249.213 109.501 248.667 107.938 249.925Z" fill="#313D6A"/>
<path d="M119.487 212.769C119.487 212.769 117.574 224.701 117.557 232.277C117.541 239.585 119.613 248.691 120.488 253.499C121.058 256.642 124.132 254.786 124.348 253.715C125.357 248.667 124.474 240.208 125.333 234.85C126.009 230.616 127.478 220.056 126.619 213.197L119.487 212.769Z" fill="white" stroke="#313D6A" stroke-miterlimit="10" stroke-linecap="round"/>
<path d="M115.2 217.487C115.123 217.911 113.413 226.171 111.915 233.495C111.272 236.641 111.638 247.58 111.166 250.43C110.918 251.932 107.844 253.288 107.559 251.073C107.083 247.385 105.45 236.601 105.165 232.745C104.88 228.886 105.772 216.775 106.773 212.916C107.767 209.052 116.055 212.769 115.2 217.487Z" fill="white" stroke="#313D6A" stroke-miterlimit="10" stroke-linecap="round"/>
<path d="M126.009 163.82C126.009 163.82 124.706 168.538 126.636 173.68C126.636 173.68 123.204 185.469 122.707 187.257C122.211 189.044 113.083 189.589 112.847 186.687C112.42 181.472 112.025 177.755 109.721 174.217C108.377 172.153 107.685 168.269 110.633 165.75C112.359 164.276 112.672 161.898 113.743 161.247C114.154 160.999 117.439 161.031 117.317 161.569C116.983 163.002 118.999 163.82 120.57 163.319C122.141 162.818 121.856 162.086 123.07 162.371C124.275 162.66 126.009 163.82 126.009 163.82Z" fill="white" stroke="#313D6A" stroke-miterlimit="10" stroke-linecap="round"/>
<path d="M112.77 185.046C112.77 185.046 114.13 186.548 115.77 186.76C119.638 187.265 122.414 185.473 123.416 185.046C124.417 184.618 126.847 188.189 128.561 194.906C130.275 201.623 131.203 219.201 131.35 221.774C131.492 224.347 120.204 224.205 116.202 223.773C112.2 223.346 103.362 220.085 102.91 217.772C102.552 215.949 102.837 208.963 103.875 205.409C105.161 201.016 111.341 183.617 112.77 185.046Z" fill="#FF4D00" stroke="#313D6A" stroke-miterlimit="10" stroke-linecap="round"/>
<path d="M125.634 163.962C127.991 163.392 132.433 170.46 132.433 170.46C132.433 170.46 134.936 173.883 135.856 175.455C136.776 177.026 136.288 179.281 134.875 181.468C133.467 183.654 125.646 194.82 124.152 196.392C122.984 197.625 120.871 197.129 122.569 194.022C124.266 190.916 130.385 178.553 130.385 178.553C130.385 178.553 127.075 174.417 126.632 173.68C123.025 167.643 125.634 163.962 125.634 163.962Z" fill="white" stroke="#313D6A" stroke-miterlimit="10" stroke-linecap="round"/>
<path d="M114.317 148.688C114.476 150.455 114.313 154.217 114.582 156.126C114.781 157.53 115.774 159.053 117.696 158.194C117.696 158.194 117.431 160.913 116.568 161.996C115.107 163.832 120.151 164.793 122.011 163.608C123.912 162.391 121.632 160.343 121.767 158.414C121.926 156.114 122.797 153.74 123.338 151.587C123.88 149.433 123.814 147.907 119.715 147.455C116.963 147.149 114.101 146.319 114.317 148.688Z" fill="white" stroke="#313D6A" stroke-miterlimit="10" stroke-linecap="round"/>
<path d="M124.881 150.638C124.205 154.904 129.384 156.639 129.384 156.639C127.56 160.176 120.379 160.925 120.379 160.925C120.379 160.925 119.084 159.822 120.379 154.815C121.987 148.599 114.248 149.604 114.248 149.604C114.248 149.604 111.683 148.354 112.57 146.775C113.079 145.867 114.268 145.728 115.135 145.163C117.92 143.355 125.956 143.884 124.881 150.638Z" fill="#313D6A"/>
<path d="M68.5918 160.71C68.5918 160.71 71.698 167.016 72.6302 168.721C73.5991 170.5 75.1135 172.634 76.5994 173.212C79.0298 174.156 87.0089 175.349 87.0089 175.349C87.245 177.103 86.8176 178.353 86.8176 178.353C86.8176 178.353 78.7693 178.687 75.1949 178.081C73.2612 177.755 70.1673 175.524 67.9242 172.817" fill="white"/>
<path d="M68.5918 160.71C68.5918 160.71 71.698 167.016 72.6302 168.721C73.5991 170.5 75.1135 172.634 76.5994 173.212C79.0298 174.156 87.0089 175.349 87.0089 175.349C87.245 177.103 86.8176 178.353 86.8176 178.353C86.8176 178.353 78.7693 178.687 75.1949 178.081C73.2612 177.755 70.1673 175.524 67.9242 172.817" stroke="#313D6A" stroke-miterlimit="10" stroke-linecap="round"/>
<path d="M48.5178 253.206C48.5178 253.206 47.5407 258.515 47.5733 259.899C47.6059 261.283 48.0618 261.54 50.3578 262.614C53.0284 263.864 59.5908 265.94 62.8435 265.016C66.658 263.933 66.1288 260.098 62.5504 258.747C59.4727 257.587 56.562 257.562 56.562 257.562L56.1671 253.548L48.5178 253.206Z" fill="#313D6A"/>
<path d="M69.296 249.514C69.296 249.514 68.3597 254.757 68.3434 256.04C68.3272 257.322 68.7709 257.538 71.0262 258.425C73.6479 259.459 79.62 260.998 82.9094 259.988C86.7686 258.804 85.4781 255.775 82.0219 254.444C79.1193 253.328 76.4284 253.332 76.4284 253.332L76.4365 249.628L69.296 249.514Z" fill="#313D6A"/>
<path d="M79.05 219.446C79.4409 221.151 79.0826 253.271 79.0826 254.456C79.0826 255.641 75.1826 256.874 68.0584 254.391C68.0584 254.391 70.6231 225.503 69.4385 222.344C68.6324 220.195 63.385 207.371 63.385 207.371C63.385 207.371 59.8961 225.206 59.7984 227.474C59.7007 229.741 58.7766 258.865 58.7766 258.865C58.7766 258.865 57.6571 260.676 52.6254 260.18C50.0729 259.927 47.2639 257.941 47.2639 257.941C47.2639 257.941 50.0281 230.335 50.2235 228.263C50.4189 226.191 51.1435 195.227 51.1435 195.227L71.9706 191.771C71.9788 191.775 78.6837 217.842 79.05 219.446Z" fill="white" stroke="#313D6A" stroke-miterlimit="10"/>
<path d="M51.6768 157.127L58.8499 156.602C58.8499 156.602 65.3472 157.787 66.6702 170.781C67.5414 179.338 73.8514 192.467 73.8514 192.467C73.8514 192.467 67.8305 196.416 58.6504 195.724C49.4704 195.032 47.1011 169.466 47.1011 169.466L51.6768 157.127Z" fill="#FF4D00" stroke="#313D6A" stroke-miterlimit="10"/>
<path d="M72.3737 193.058C72.9315 195.773 74.8407 202.73 74.8407 202.73L80.8943 198.651C75.431 194.702 73.3223 180.352 72.1742 176.574C70.497 171.046 69.7398 167.264 68.9175 161.67C68.3923 158.096 64.5738 155.719 58.85 156.602C58.85 156.602 62.5953 159.004 63.1286 162.985C65.2333 178.777 72.3737 193.058 72.3737 193.058Z" fill="white" stroke="#313D6A" stroke-miterlimit="10"/>
<path d="M58.2556 178.646C59.8351 189.504 58.6505 200.1 57.7304 204.444C56.8104 208.788 42.7248 202.995 40.4899 201.285C40.4899 201.285 45.3587 191.152 45.7536 187.334" stroke="#FF4D00" stroke-miterlimit="10"/>
<path d="M62.8476 144.206C62.7784 145.932 63.2832 150.667 63.503 152.165C63.8409 154.473 60.7796 155.654 57.82 153.923C57.82 153.923 58.1945 156.382 59.1268 158.263C60.4091 160.852 54.5103 161.434 52.3119 159.838C50.0648 158.202 53.0203 155.853 52.9999 153.467C52.9796 150.626 52.084 147.642 51.5792 144.955C51.0744 142.268 51.2657 140.391 56.3463 140.147C59.7496 139.98 62.9657 141.279 62.8476 144.206Z" fill="white" stroke="#313D6A" stroke-miterlimit="10" stroke-linecap="round"/>
<path d="M63.324 144.886C57.6613 145.883 54.7749 144.89 54.7749 144.89C54.7749 144.89 54.262 150.467 51.913 152.157C51.913 152.157 49.5763 148.338 48.8598 145.097C48.1433 141.857 49.7066 138.551 53.4844 137.855C56.7046 137.261 59.2408 138.645 60.2504 139.203C62.0742 140.212 67.8713 144.084 63.324 144.886Z" fill="#313D6A"/>
<path d="M45.4972 188.738C44.2881 193.277 40.4858 201.281 40.4858 201.281C42.7248 202.991 56.8063 208.784 57.7264 204.44C58.6464 200.096 59.831 189.504 58.2515 178.642C56.672 167.785 51.6728 157.123 51.6728 157.123C51.6728 157.123 46.4091 157.978 44.0397 159.558C41.6704 161.137 39.9606 163.506 40.2212 168.375C40.4247 172.117 43.421 181.13 45.8106 186.963L45.4972 188.738Z" fill="white" stroke="#313D6A" stroke-miterlimit="10"/>
<path d="M78.8669 188.148L64.3865 183.743L80.4627 176.481L96.1075 178.207L78.8669 188.148Z" fill="#313D6A"/>
<path d="M78.8669 188.148L84.033 171.828L99.6655 165.526L96.1075 178.207L78.8669 188.148Z" fill="#FF4D00" stroke="#313D6A" stroke-miterlimit="10" stroke-linecap="round"/>
<path d="M59.3099 187.102C59.3099 187.102 71.0669 184.96 74.055 184.293C77.0431 183.625 76.9535 185.498 75.6508 186.178C73.9858 187.045 62.8191 190.884 60.6615 191.535L59.3099 187.102Z" fill="white" stroke="#313D6A" stroke-miterlimit="10" stroke-linecap="round"/>
<path d="M49.3076 170.749C49.3076 170.749 51.3797 181.573 52.1369 184.04C52.9267 186.605 53.7816 187.529 55.8862 187.134C57.9909 186.739 67.289 184.863 67.289 184.863C67.0936 187.232 68.8197 189.304 68.8197 189.304C68.8197 189.304 57.8647 193.648 55.2308 194.043C52.5969 194.438 49.9671 195.227 47.728 191.148C45.489 187.069 40.4898 173.248 40.2252 168.379" fill="white"/>
<path d="M49.3076 170.749C49.3076 170.749 51.3797 181.573 52.1369 184.04C52.9267 186.605 53.7816 187.529 55.8862 187.134C57.9909 186.739 67.289 184.863 67.289 184.863C67.0936 187.232 68.8197 189.304 68.8197 189.304C68.8197 189.304 57.8647 193.648 55.2308 194.043C52.5969 194.438 49.9671 195.227 47.728 191.148C45.489 187.069 40.4898 173.248 40.2252 168.379" stroke="#313D6A" stroke-miterlimit="10" stroke-linecap="round"/>
<path d="M376.894 217.011L376.316 219.56C376.316 219.56 369.937 225.703 367.979 227.148C366.021 228.593 367.193 229.513 368.28 229.086C369.668 228.54 377.013 223.785 378.527 222.833C380.041 221.88 380.737 220.61 380.884 219.368C381.039 218.037 381.088 217.015 381.088 217.015H376.894V217.011Z" fill="white" stroke="#313D6A" stroke-miterlimit="10" stroke-linecap="round"/>
<path d="M400.213 288.42C400.213 288.42 400.681 290.855 400.803 291.933C400.925 293.012 400.644 293.309 399.199 294.661C397.518 296.228 393.846 299.033 391.538 299.049C388.834 299.074 388.297 295.345 391.42 293.415C393.573 292.084 395.1 290.993 395.1 290.993L395.315 288.217L400.213 288.42Z" fill="white" stroke="#313D6A" stroke-miterlimit="10"/>
<path d="M381.409 281.043C381.409 281.043 381.625 283.8 381.572 284.805C381.519 285.811 380.717 286.425 379.182 287.443C377.403 288.624 373.931 290.663 371.814 290.325C369.331 289.93 369.9 286.999 372.245 285.473C374.216 284.186 375.987 283.82 375.987 283.82L376.609 280.95L381.409 281.043Z" fill="white" stroke="#313D6A" stroke-miterlimit="10"/>
<path d="M398.979 236.743C398.979 236.743 399.96 239.711 399.96 244.482C399.96 249.697 398.544 255.828 398.544 255.828C398.544 255.828 400.457 282.924 401.043 289.739C401.043 289.739 399.101 293.236 396.374 293.106C393.646 292.975 393.129 291.441 393.129 291.441C393.129 291.441 392.226 278.515 390.809 270.524C390.52 268.888 386.901 250.279 386.901 250.279C386.901 250.279 384.878 255.632 383.168 262.626C382.512 265.313 382.174 283.747 382.174 283.747C382.174 283.747 375.278 288.005 374.948 283.8C374.948 283.8 374.953 264.955 375.335 260.786C376.251 250.865 379.378 236.804 379.378 236.804L398.979 236.743Z" fill="#313D6A" stroke="#313D6A" stroke-miterlimit="10"/>
<path d="M375.726 217.593C375.726 217.593 378.633 207.457 379.769 206.105C380.782 204.9 383.078 204.546 385.089 204.611C385.7 204.631 388.643 204.684 391.709 205.132C393.85 205.446 396.256 206.117 397.095 206.398C399.138 207.078 401.088 207.957 401.28 212.729C401.373 215.008 400.799 217.308 400.014 219.381C400.014 219.381 398.829 227.982 400.628 237.036C401.182 239.821 396.895 241.742 389.498 242.035C382.097 242.329 378.27 239.145 377.684 238.368C377.098 237.59 378.266 237.297 378.462 236.031C378.657 234.765 379.439 228.679 379.826 224.738C380.086 222.075 380.151 219.45 380.151 219.45C380.151 219.45 377.578 219.25 375.726 217.593Z" fill="white" stroke="#313D6A" stroke-miterlimit="10"/>
<path d="M380.79 215.016C380.79 215.016 380.351 217.011 380.159 219.446Z" fill="white"/>
<path d="M380.79 215.016C380.79 215.016 380.351 217.011 380.159 219.446" stroke="#313D6A" stroke-miterlimit="10" stroke-linecap="round"/>
<path d="M382.883 194.487C383.021 195.891 382.834 199.779 382.724 201.012C382.557 202.913 385.114 203.728 387.442 202.177C387.442 202.177 387.251 204.2 386.579 205.779C385.655 207.953 390.496 208.149 392.213 206.74C393.972 205.299 391.448 203.524 391.35 201.574C391.236 199.254 391.823 196.778 392.108 194.564C392.393 192.349 392.148 190.827 387.992 190.867C385.211 190.896 382.651 192.105 382.883 194.487Z" fill="white" stroke="#313D6A" stroke-miterlimit="10" stroke-linecap="round"/>
<path d="M379.064 191.364C379.064 191.364 379.089 195.252 382.834 195.687C387.503 196.233 389.502 194.666 389.502 194.666C389.502 194.666 390.182 199.193 392.181 200.459C392.181 200.459 393.907 197.234 394.339 194.556C394.77 191.877 393.337 189.255 390.223 188.865C387.568 188.531 385.48 189.667 384.768 190.285C384.055 190.9 382.858 191.849 379.064 191.364Z" fill="#313D6A"/>
<path d="M359.878 220.959L374.028 227.786L373.222 237.227L359.076 230.86L359.878 220.959Z" fill="#313D6A" stroke="#313D6A" stroke-miterlimit="10" stroke-linecap="round"/>
<path d="M365.15 220.899L378.633 227.584L373.222 237.224L359.076 230.857L365.15 220.899Z" fill="white" stroke="#313D6A" stroke-miterlimit="10" stroke-linecap="round"/>
<path d="M393.207 221.416L391.237 225.654C391.237 225.654 379.06 228.613 375.909 229.249C372.758 229.884 373.646 231.638 375.185 231.736C377.151 231.858 389.486 230.775 391.831 230.482C394.176 230.189 396.032 229.212 396.586 227.653C397.139 226.094 398.064 222.352 398.064 222.352L393.207 221.416Z" fill="white" stroke="#313D6A" stroke-miterlimit="10" stroke-linecap="round"/>
<path d="M393.98 215C393.98 215 393.072 219.999 391.318 222.788C391.318 222.788 396.252 225.06 398.524 225.06C398.524 225.06 398.849 222.527 400.018 219.376" fill="white"/>
<path d="M393.98 215C393.98 215 393.072 219.999 391.318 222.788C391.318 222.788 396.252 225.06 398.524 225.06C398.524 225.06 398.849 222.527 400.018 219.376" stroke="#313D6A" stroke-miterlimit="10" stroke-linecap="round"/>
<path d="M76.6686 86.1132C76.6686 86.1132 73.2857 84.0737 74.6861 81.8754C75.5247 80.5564 80.4139 78.301 83.1415 79.3839C90.5547 82.3272 91.7312 88.222 92.1261 92.4639C92.1261 92.4639 99.5434 94.76 99.5434 103.692C99.5434 107.718 93.0787 110.462 92.1628 110.209C89.8464 109.57 76.6686 86.1132 76.6686 86.1132Z" fill="#C9C9C9"/>
<path d="M71.6125 89.0117C71.6125 89.0117 71.242 79.9009 77.4258 82.0829C84.9246 84.7291 86.6751 91.0432 87.074 95.1589C87.074 95.1589 94.589 97.3287 94.589 106.305C94.589 111.345 89.2764 111.04 86.9112 109.737C84.8309 108.589 73.3345 102.149 71.2217 100.866C69.1088 99.5881 66.597 96.1889 66.597 91.7963C66.593 87.4037 69.8945 87.3223 71.6125 89.0117Z" fill="white" stroke="#313D6A" stroke-miterlimit="10"/>
</g>
<defs>
<clipPath id="clip0">
<rect width="614" height="379.243" fill="white"/>
</clipPath>
</defs>
</svg>
